G04 (created by PCBNEW-RS274X (2012-01-19 BZR 3256)-stable) date 2/20/2012 8:21:21 PM*
G01*
G70*
G90*
%MOIN*%
G04 Gerber Fmt 3.4, Leading zero omitted, Abs format*
%FSLAX34Y34*%
G04 APERTURE LIST*
%ADD10C,0.006000*%
%ADD11C,0.012000*%
%ADD12C,0.015000*%
%ADD13C,0.010000*%
%ADD14C,0.012500*%
%ADD15C,0.005000*%
%ADD16C,0.008000*%
G04 APERTURE END LIST*
G54D10*
G54D11*
X30118Y-43185D02*
X30232Y-43185D01*
X30290Y-43223D01*
X30347Y-43299D01*
X30375Y-43451D01*
X30375Y-43718D01*
X30347Y-43871D01*
X30290Y-43947D01*
X30232Y-43985D01*
X30118Y-43985D01*
X30061Y-43947D01*
X30004Y-43871D01*
X29975Y-43718D01*
X29975Y-43451D01*
X30004Y-43299D01*
X30061Y-43223D01*
X30118Y-43185D01*
X30633Y-43985D02*
X30633Y-43451D01*
X30633Y-43604D02*
X30661Y-43528D01*
X30690Y-43490D01*
X30747Y-43451D01*
X30804Y-43451D01*
X31261Y-43985D02*
X31261Y-43185D01*
X31261Y-43947D02*
X31204Y-43985D01*
X31090Y-43985D01*
X31032Y-43947D01*
X31004Y-43909D01*
X30975Y-43832D01*
X30975Y-43604D01*
X31004Y-43528D01*
X31032Y-43490D01*
X31090Y-43451D01*
X31204Y-43451D01*
X31261Y-43490D01*
X31775Y-43947D02*
X31718Y-43985D01*
X31604Y-43985D01*
X31547Y-43947D01*
X31518Y-43871D01*
X31518Y-43566D01*
X31547Y-43490D01*
X31604Y-43451D01*
X31718Y-43451D01*
X31775Y-43490D01*
X31804Y-43566D01*
X31804Y-43642D01*
X31518Y-43718D01*
X32061Y-43985D02*
X32061Y-43451D01*
X32061Y-43604D02*
X32089Y-43528D01*
X32118Y-43490D01*
X32175Y-43451D01*
X32232Y-43451D01*
X32860Y-43451D02*
X33289Y-43451D01*
X33032Y-43109D02*
X32860Y-44137D01*
X33232Y-43794D02*
X32803Y-43794D01*
X33060Y-44137D02*
X33232Y-43109D01*
X33746Y-43451D02*
X33746Y-43985D01*
X33603Y-43147D02*
X33460Y-43718D01*
X33832Y-43718D01*
X34346Y-43185D02*
X34060Y-43185D01*
X34031Y-43566D01*
X34060Y-43528D01*
X34117Y-43490D01*
X34260Y-43490D01*
X34317Y-43528D01*
X34346Y-43566D01*
X34374Y-43642D01*
X34374Y-43832D01*
X34346Y-43909D01*
X34317Y-43947D01*
X34260Y-43985D01*
X34117Y-43985D01*
X34060Y-43947D01*
X34031Y-43909D01*
X34745Y-43185D02*
X34802Y-43185D01*
X34859Y-43223D01*
X34888Y-43261D01*
X34917Y-43337D01*
X34945Y-43490D01*
X34945Y-43680D01*
X34917Y-43832D01*
X34888Y-43909D01*
X34859Y-43947D01*
X34802Y-43985D01*
X34745Y-43985D01*
X34688Y-43947D01*
X34659Y-43909D01*
X34631Y-43832D01*
X34602Y-43680D01*
X34602Y-43490D01*
X34631Y-43337D01*
X34659Y-43261D01*
X34688Y-43223D01*
X34745Y-43185D01*
X35145Y-43185D02*
X35516Y-43185D01*
X35316Y-43490D01*
X35402Y-43490D01*
X35459Y-43528D01*
X35488Y-43566D01*
X35516Y-43642D01*
X35516Y-43832D01*
X35488Y-43909D01*
X35459Y-43947D01*
X35402Y-43985D01*
X35230Y-43985D01*
X35173Y-43947D01*
X35145Y-43909D01*
X35859Y-43528D02*
X35801Y-43490D01*
X35773Y-43451D01*
X35744Y-43375D01*
X35744Y-43337D01*
X35773Y-43261D01*
X35801Y-43223D01*
X35859Y-43185D01*
X35973Y-43185D01*
X36030Y-43223D01*
X36059Y-43261D01*
X36087Y-43337D01*
X36087Y-43375D01*
X36059Y-43451D01*
X36030Y-43490D01*
X35973Y-43528D01*
X35859Y-43528D01*
X35801Y-43566D01*
X35773Y-43604D01*
X35744Y-43680D01*
X35744Y-43832D01*
X35773Y-43909D01*
X35801Y-43947D01*
X35859Y-43985D01*
X35973Y-43985D01*
X36030Y-43947D01*
X36059Y-43909D01*
X36087Y-43832D01*
X36087Y-43680D01*
X36059Y-43604D01*
X36030Y-43566D01*
X35973Y-43528D01*
G54D12*
X28250Y-42500D02*
X28250Y-22000D01*
X37750Y-42500D02*
X28250Y-42500D01*
X37750Y-22000D02*
X37750Y-42500D01*
X28250Y-22000D02*
X37750Y-22000D01*
X36500Y-42250D02*
X36500Y-22250D01*
X37500Y-22250D02*
X37500Y-42250D01*
G54D11*
X36500Y-22250D02*
X37500Y-22250D01*
X37500Y-42250D02*
X36500Y-42250D01*
X37500Y-23250D02*
X36500Y-23250D01*
G54D12*
X28500Y-42250D02*
X28500Y-22250D01*
X29500Y-22250D02*
X29500Y-42250D01*
G54D11*
X28500Y-22250D02*
X29500Y-22250D01*
X29500Y-42250D02*
X28500Y-42250D01*
X29500Y-23250D02*
X28500Y-23250D01*
G54D13*
X35000Y-37000D02*
X31000Y-37000D01*
X35000Y-36000D02*
X31000Y-36000D01*
X31000Y-36000D02*
X31000Y-37000D01*
X35000Y-37000D02*
X35000Y-36000D01*
G54D14*
X31750Y-33000D02*
X34250Y-33000D01*
X31750Y-31000D02*
X34250Y-31000D01*
X35250Y-32000D02*
X35246Y-31913D01*
X35234Y-31827D01*
X35215Y-31742D01*
X35189Y-31658D01*
X35156Y-31578D01*
X35116Y-31501D01*
X35069Y-31427D01*
X35016Y-31358D01*
X34957Y-31293D01*
X34892Y-31234D01*
X34823Y-31181D01*
X34750Y-31134D01*
X34672Y-31094D01*
X34592Y-31061D01*
X34508Y-31035D01*
X34423Y-31016D01*
X34337Y-31004D01*
X34250Y-31000D01*
X34250Y-33000D02*
X34337Y-32996D01*
X34423Y-32984D01*
X34508Y-32965D01*
X34592Y-32939D01*
X34672Y-32906D01*
X34750Y-32866D01*
X34823Y-32819D01*
X34892Y-32766D01*
X34957Y-32707D01*
X35016Y-32642D01*
X35069Y-32573D01*
X35116Y-32499D01*
X35156Y-32422D01*
X35189Y-32342D01*
X35215Y-32258D01*
X35234Y-32173D01*
X35246Y-32087D01*
X35250Y-32000D01*
X31750Y-31000D02*
X31663Y-31004D01*
X31577Y-31016D01*
X31492Y-31035D01*
X31408Y-31061D01*
X31328Y-31094D01*
X31251Y-31134D01*
X31177Y-31181D01*
X31108Y-31234D01*
X31043Y-31293D01*
X30984Y-31358D01*
X30931Y-31427D01*
X30884Y-31501D01*
X30844Y-31578D01*
X30811Y-31658D01*
X30785Y-31742D01*
X30766Y-31827D01*
X30754Y-31913D01*
X30750Y-32000D01*
X30750Y-32000D02*
X30754Y-32087D01*
X30766Y-32173D01*
X30785Y-32258D01*
X30811Y-32342D01*
X30844Y-32422D01*
X30884Y-32499D01*
X30931Y-32573D01*
X30984Y-32642D01*
X31043Y-32707D01*
X31108Y-32766D01*
X31177Y-32819D01*
X31251Y-32866D01*
X31328Y-32906D01*
X31408Y-32939D01*
X31492Y-32965D01*
X31577Y-32984D01*
X31663Y-32996D01*
X31750Y-33000D01*
G54D12*
X33447Y-34683D02*
X33447Y-33817D01*
X33447Y-33817D02*
X30848Y-33817D01*
X30848Y-33817D02*
X30848Y-34683D01*
X30848Y-34683D02*
X33447Y-34683D01*
G54D15*
X33100Y-23650D02*
X33099Y-23659D01*
X33096Y-23669D01*
X33091Y-23677D01*
X33085Y-23685D01*
X33077Y-23691D01*
X33069Y-23696D01*
X33060Y-23698D01*
X33050Y-23699D01*
X33041Y-23699D01*
X33032Y-23696D01*
X33023Y-23691D01*
X33016Y-23685D01*
X33009Y-23678D01*
X33005Y-23669D01*
X33002Y-23660D01*
X33001Y-23650D01*
X33001Y-23641D01*
X33004Y-23632D01*
X33008Y-23623D01*
X33015Y-23616D01*
X33022Y-23609D01*
X33030Y-23605D01*
X33040Y-23602D01*
X33049Y-23601D01*
X33058Y-23601D01*
X33068Y-23604D01*
X33076Y-23608D01*
X33084Y-23614D01*
X33090Y-23622D01*
X33095Y-23630D01*
X33098Y-23639D01*
X33099Y-23649D01*
X33100Y-23650D01*
X33050Y-23200D02*
X33050Y-23600D01*
X33050Y-23600D02*
X32450Y-23600D01*
X32450Y-23600D02*
X32450Y-23200D01*
X32450Y-22800D02*
X32450Y-22400D01*
X32450Y-22400D02*
X33050Y-22400D01*
X33050Y-22400D02*
X33050Y-22800D01*
G54D12*
X31051Y-27250D02*
X33000Y-29199D01*
X33001Y-25302D02*
X34949Y-27251D01*
X31051Y-27250D02*
X33000Y-25301D01*
X33000Y-29199D02*
X34949Y-27250D01*
G54D16*
X33149Y-28575D02*
X33146Y-28603D01*
X33137Y-28631D01*
X33124Y-28657D01*
X33105Y-28679D01*
X33083Y-28698D01*
X33057Y-28712D01*
X33029Y-28720D01*
X33001Y-28723D01*
X32973Y-28721D01*
X32945Y-28713D01*
X32919Y-28699D01*
X32896Y-28681D01*
X32878Y-28659D01*
X32864Y-28633D01*
X32855Y-28605D01*
X32852Y-28577D01*
X32854Y-28549D01*
X32862Y-28521D01*
X32875Y-28495D01*
X32893Y-28472D01*
X32915Y-28453D01*
X32941Y-28439D01*
X32969Y-28430D01*
X32997Y-28427D01*
X33025Y-28429D01*
X33053Y-28437D01*
X33079Y-28450D01*
X33102Y-28468D01*
X33121Y-28490D01*
X33136Y-28515D01*
X33145Y-28542D01*
X33148Y-28571D01*
X33149Y-28575D01*
G54D12*
X31492Y-24136D02*
X31492Y-22364D01*
X31492Y-22364D02*
X30508Y-22364D01*
X30508Y-22364D02*
X30508Y-24136D01*
X30508Y-24136D02*
X31492Y-24136D01*
G54D15*
X32400Y-30550D02*
X32399Y-30559D01*
X32396Y-30569D01*
X32391Y-30577D01*
X32385Y-30585D01*
X32377Y-30591D01*
X32369Y-30596D01*
X32360Y-30598D01*
X32350Y-30599D01*
X32341Y-30599D01*
X32332Y-30596D01*
X32323Y-30591D01*
X32316Y-30585D01*
X32309Y-30578D01*
X32305Y-30569D01*
X32302Y-30560D01*
X32301Y-30550D01*
X32301Y-30541D01*
X32304Y-30532D01*
X32308Y-30523D01*
X32315Y-30516D01*
X32322Y-30509D01*
X32330Y-30505D01*
X32340Y-30502D01*
X32349Y-30501D01*
X32358Y-30501D01*
X32368Y-30504D01*
X32376Y-30508D01*
X32384Y-30514D01*
X32390Y-30522D01*
X32395Y-30530D01*
X32398Y-30539D01*
X32399Y-30549D01*
X32400Y-30550D01*
X32800Y-30550D02*
X32400Y-30550D01*
X32400Y-30550D02*
X32400Y-29950D01*
X32400Y-29950D02*
X32800Y-29950D01*
X33200Y-29950D02*
X33600Y-29950D01*
X33600Y-29950D02*
X33600Y-30550D01*
X33600Y-30550D02*
X33200Y-30550D01*
G54D16*
X30150Y-35477D02*
X30398Y-35477D01*
X30264Y-35629D01*
X30322Y-35629D01*
X30360Y-35648D01*
X30379Y-35667D01*
X30398Y-35705D01*
X30398Y-35801D01*
X30379Y-35839D01*
X30360Y-35858D01*
X30322Y-35877D01*
X30207Y-35877D01*
X30169Y-35858D01*
X30150Y-35839D01*
X30569Y-35839D02*
X30588Y-35858D01*
X30569Y-35877D01*
X30550Y-35858D01*
X30569Y-35839D01*
X30569Y-35877D01*
X30721Y-35477D02*
X30969Y-35477D01*
X30835Y-35629D01*
X30893Y-35629D01*
X30931Y-35648D01*
X30950Y-35667D01*
X30969Y-35705D01*
X30969Y-35801D01*
X30950Y-35839D01*
X30931Y-35858D01*
X30893Y-35877D01*
X30778Y-35877D01*
X30740Y-35858D01*
X30721Y-35839D01*
X31083Y-35477D02*
X31216Y-35877D01*
X31350Y-35477D01*
X31769Y-35458D02*
X31426Y-35972D01*
X32131Y-35839D02*
X32112Y-35858D01*
X32055Y-35877D01*
X32017Y-35877D01*
X31959Y-35858D01*
X31921Y-35820D01*
X31902Y-35782D01*
X31883Y-35705D01*
X31883Y-35648D01*
X31902Y-35572D01*
X31921Y-35534D01*
X31959Y-35496D01*
X32017Y-35477D01*
X32055Y-35477D01*
X32112Y-35496D01*
X32131Y-35515D01*
X32493Y-35877D02*
X32302Y-35877D01*
X32302Y-35477D01*
X32626Y-35877D02*
X32626Y-35477D01*
X32855Y-35877D02*
X32683Y-35648D01*
X32855Y-35477D02*
X32626Y-35705D01*
X33312Y-35458D02*
X32969Y-35972D01*
X33655Y-35496D02*
X33617Y-35477D01*
X33560Y-35477D01*
X33502Y-35496D01*
X33464Y-35534D01*
X33445Y-35572D01*
X33426Y-35648D01*
X33426Y-35705D01*
X33445Y-35782D01*
X33464Y-35820D01*
X33502Y-35858D01*
X33560Y-35877D01*
X33598Y-35877D01*
X33655Y-35858D01*
X33674Y-35839D01*
X33674Y-35705D01*
X33598Y-35705D01*
X33845Y-35877D02*
X33845Y-35477D01*
X34074Y-35877D01*
X34074Y-35477D01*
X34264Y-35877D02*
X34264Y-35477D01*
X34359Y-35477D01*
X34417Y-35496D01*
X34455Y-35534D01*
X34474Y-35572D01*
X34493Y-35648D01*
X34493Y-35705D01*
X34474Y-35782D01*
X34455Y-35820D01*
X34417Y-35858D01*
X34359Y-35877D01*
X34264Y-35877D01*
X34950Y-35458D02*
X34607Y-35972D01*
X35083Y-35877D02*
X35083Y-35477D01*
X35178Y-35477D01*
X35236Y-35496D01*
X35274Y-35534D01*
X35293Y-35572D01*
X35312Y-35648D01*
X35312Y-35705D01*
X35293Y-35782D01*
X35274Y-35820D01*
X35236Y-35858D01*
X35178Y-35877D01*
X35083Y-35877D01*
X35483Y-35877D02*
X35483Y-35477D01*
X35749Y-35477D02*
X35826Y-35477D01*
X35864Y-35496D01*
X35902Y-35534D01*
X35921Y-35610D01*
X35921Y-35744D01*
X35902Y-35820D01*
X35864Y-35858D01*
X35826Y-35877D01*
X35749Y-35877D01*
X35711Y-35858D01*
X35673Y-35820D01*
X35654Y-35744D01*
X35654Y-35610D01*
X35673Y-35534D01*
X35711Y-35496D01*
X35749Y-35477D01*
G54D11*
X32515Y-31393D02*
X32915Y-31993D01*
X32915Y-31393D02*
X32515Y-31993D01*
X33457Y-31993D02*
X33114Y-31993D01*
X33286Y-31993D02*
X33286Y-31393D01*
X33229Y-31479D01*
X33171Y-31536D01*
X33114Y-31564D01*
X30858Y-32585D02*
X30800Y-32556D01*
X30772Y-32528D01*
X30743Y-32471D01*
X30743Y-32442D01*
X30772Y-32385D01*
X30800Y-32356D01*
X30858Y-32328D01*
X30972Y-32328D01*
X31029Y-32356D01*
X31058Y-32385D01*
X31086Y-32442D01*
X31086Y-32471D01*
X31058Y-32528D01*
X31029Y-32556D01*
X30972Y-32585D01*
X30858Y-32585D01*
X30800Y-32614D01*
X30772Y-32642D01*
X30743Y-32699D01*
X30743Y-32814D01*
X30772Y-32871D01*
X30800Y-32899D01*
X30858Y-32928D01*
X30972Y-32928D01*
X31029Y-32899D01*
X31058Y-32871D01*
X31086Y-32814D01*
X31086Y-32699D01*
X31058Y-32642D01*
X31029Y-32614D01*
X30972Y-32585D01*
X31343Y-32928D02*
X31343Y-32328D01*
X31543Y-32756D01*
X31743Y-32328D01*
X31743Y-32928D01*
X32029Y-32928D02*
X32029Y-32328D01*
X32029Y-32614D02*
X32372Y-32614D01*
X32372Y-32928D02*
X32372Y-32328D01*
X32601Y-32528D02*
X32915Y-32528D01*
X32601Y-32928D01*
X32915Y-32928D01*
X33172Y-32899D02*
X33172Y-32928D01*
X33144Y-32985D01*
X33115Y-33014D01*
X33830Y-32328D02*
X34230Y-32328D01*
X33973Y-32928D01*
X34458Y-32528D02*
X34458Y-33128D01*
X34458Y-32556D02*
X34515Y-32528D01*
X34629Y-32528D01*
X34686Y-32556D01*
X34715Y-32585D01*
X34744Y-32642D01*
X34744Y-32814D01*
X34715Y-32871D01*
X34686Y-32899D01*
X34629Y-32928D01*
X34515Y-32928D01*
X34458Y-32899D01*
X35201Y-32614D02*
X35001Y-32614D01*
X35001Y-32928D02*
X35001Y-32328D01*
X35287Y-32328D01*
G54D16*
X30226Y-34012D02*
X30474Y-34012D01*
X30340Y-34164D01*
X30398Y-34164D01*
X30436Y-34183D01*
X30455Y-34202D01*
X30474Y-34240D01*
X30474Y-34336D01*
X30455Y-34374D01*
X30436Y-34393D01*
X30398Y-34412D01*
X30283Y-34412D01*
X30245Y-34393D01*
X30226Y-34374D01*
X30626Y-34050D02*
X30645Y-34031D01*
X30683Y-34012D01*
X30779Y-34012D01*
X30817Y-34031D01*
X30836Y-34050D01*
X30855Y-34088D01*
X30855Y-34126D01*
X30836Y-34183D01*
X30607Y-34412D01*
X30855Y-34412D01*
X31026Y-34374D02*
X31045Y-34393D01*
X31026Y-34412D01*
X31007Y-34393D01*
X31026Y-34374D01*
X31026Y-34412D01*
X31178Y-34012D02*
X31445Y-34012D01*
X31273Y-34412D01*
X31769Y-34012D02*
X31692Y-34012D01*
X31654Y-34031D01*
X31635Y-34050D01*
X31597Y-34107D01*
X31578Y-34183D01*
X31578Y-34336D01*
X31597Y-34374D01*
X31616Y-34393D01*
X31654Y-34412D01*
X31731Y-34412D01*
X31769Y-34393D01*
X31788Y-34374D01*
X31807Y-34336D01*
X31807Y-34240D01*
X31788Y-34202D01*
X31769Y-34183D01*
X31731Y-34164D01*
X31654Y-34164D01*
X31616Y-34183D01*
X31597Y-34202D01*
X31578Y-34240D01*
X32035Y-34183D02*
X31997Y-34164D01*
X31978Y-34145D01*
X31959Y-34107D01*
X31959Y-34088D01*
X31978Y-34050D01*
X31997Y-34031D01*
X32035Y-34012D01*
X32112Y-34012D01*
X32150Y-34031D01*
X32169Y-34050D01*
X32188Y-34088D01*
X32188Y-34107D01*
X32169Y-34145D01*
X32150Y-34164D01*
X32112Y-34183D01*
X32035Y-34183D01*
X31997Y-34202D01*
X31978Y-34221D01*
X31959Y-34260D01*
X31959Y-34336D01*
X31978Y-34374D01*
X31997Y-34393D01*
X32035Y-34412D01*
X32112Y-34412D01*
X32150Y-34393D01*
X32169Y-34374D01*
X32188Y-34336D01*
X32188Y-34260D01*
X32169Y-34221D01*
X32150Y-34202D01*
X32112Y-34183D01*
X32359Y-34412D02*
X32359Y-34012D01*
X32397Y-34260D02*
X32512Y-34412D01*
X32512Y-34145D02*
X32359Y-34298D01*
X32683Y-34412D02*
X32683Y-34012D01*
X32683Y-34202D02*
X32912Y-34202D01*
X32912Y-34412D02*
X32912Y-34012D01*
X33064Y-34145D02*
X33274Y-34145D01*
X33064Y-34412D01*
X33274Y-34412D01*
G54D15*
X32282Y-23153D02*
X32294Y-23165D01*
X32306Y-23200D01*
X32306Y-23224D01*
X32294Y-23260D01*
X32270Y-23284D01*
X32247Y-23295D01*
X32199Y-23307D01*
X32163Y-23307D01*
X32116Y-23295D01*
X32092Y-23284D01*
X32068Y-23260D01*
X32056Y-23224D01*
X32056Y-23200D01*
X32068Y-23165D01*
X32080Y-23153D01*
X32306Y-22915D02*
X32306Y-23057D01*
X32306Y-22986D02*
X32056Y-22986D01*
X32092Y-23010D01*
X32116Y-23034D01*
X32128Y-23057D01*
X32056Y-22760D02*
X32056Y-22736D01*
X32068Y-22712D01*
X32080Y-22700D01*
X32104Y-22688D01*
X32151Y-22677D01*
X32211Y-22677D01*
X32259Y-22688D01*
X32282Y-22700D01*
X32294Y-22712D01*
X32306Y-22736D01*
X32306Y-22760D01*
X32294Y-22784D01*
X32282Y-22796D01*
X32259Y-22807D01*
X32211Y-22819D01*
X32151Y-22819D01*
X32104Y-22807D01*
X32080Y-22796D01*
X32068Y-22784D01*
X32056Y-22760D01*
X33408Y-23355D02*
X33408Y-23497D01*
X33408Y-23426D02*
X33158Y-23426D01*
X33194Y-23450D01*
X33218Y-23474D01*
X33230Y-23497D01*
X33158Y-23200D02*
X33158Y-23176D01*
X33170Y-23152D01*
X33182Y-23140D01*
X33206Y-23128D01*
X33253Y-23117D01*
X33313Y-23117D01*
X33361Y-23128D01*
X33384Y-23140D01*
X33396Y-23152D01*
X33408Y-23176D01*
X33408Y-23200D01*
X33396Y-23224D01*
X33384Y-23236D01*
X33361Y-23247D01*
X33313Y-23259D01*
X33253Y-23259D01*
X33206Y-23247D01*
X33182Y-23236D01*
X33170Y-23224D01*
X33158Y-23200D01*
X33242Y-22712D02*
X33408Y-22712D01*
X33242Y-22819D02*
X33372Y-22819D01*
X33396Y-22808D01*
X33408Y-22784D01*
X33408Y-22748D01*
X33396Y-22724D01*
X33384Y-22712D01*
X33277Y-22510D02*
X33277Y-22593D01*
X33408Y-22593D02*
X33158Y-22593D01*
X33158Y-22474D01*
X32195Y-26841D02*
X32443Y-27088D01*
X32487Y-27103D01*
X32516Y-27103D01*
X32560Y-27088D01*
X32618Y-27030D01*
X32632Y-26987D01*
X32633Y-26958D01*
X32618Y-26913D01*
X32371Y-26666D01*
X32983Y-26666D02*
X32808Y-26841D01*
X32895Y-26753D02*
X32589Y-26447D01*
X32604Y-26520D01*
X32604Y-26578D01*
X32588Y-26622D01*
G54D10*
X32950Y-28419D02*
X33003Y-28392D01*
X33069Y-28326D01*
X33083Y-28286D01*
X33082Y-28260D01*
X33069Y-28220D01*
X33043Y-28194D01*
X33003Y-28180D01*
X32977Y-28180D01*
X32937Y-28194D01*
X32870Y-28233D01*
X32831Y-28246D01*
X32805Y-28247D01*
X32764Y-28233D01*
X32738Y-28207D01*
X32725Y-28167D01*
X32725Y-28140D01*
X32737Y-28100D01*
X32804Y-28034D01*
X32857Y-28008D01*
X32923Y-27914D02*
X33082Y-27755D01*
X33281Y-28114D02*
X33003Y-27835D01*
X33454Y-27941D02*
X33175Y-27663D01*
X33467Y-27769D01*
X33360Y-27477D01*
X33639Y-27756D01*
X33466Y-27371D02*
X33639Y-27199D01*
X33653Y-27398D01*
X33693Y-27359D01*
X33732Y-27344D01*
X33758Y-27345D01*
X33799Y-27359D01*
X33864Y-27424D01*
X33878Y-27465D01*
X33879Y-27491D01*
X33864Y-27530D01*
X33785Y-27610D01*
X33746Y-27624D01*
X33719Y-27624D01*
X33772Y-27120D02*
X33772Y-27093D01*
X33785Y-27053D01*
X33851Y-26987D01*
X33891Y-26973D01*
X33917Y-26974D01*
X33958Y-26987D01*
X33984Y-27013D01*
X34010Y-27067D01*
X34010Y-27385D01*
X34183Y-27212D01*
G54D15*
X30556Y-23460D02*
X30759Y-23460D01*
X30782Y-23449D01*
X30794Y-23437D01*
X30806Y-23413D01*
X30806Y-23365D01*
X30794Y-23341D01*
X30782Y-23330D01*
X30759Y-23318D01*
X30556Y-23318D01*
X30580Y-23210D02*
X30568Y-23198D01*
X30556Y-23175D01*
X30556Y-23115D01*
X30568Y-23091D01*
X30580Y-23079D01*
X30604Y-23068D01*
X30628Y-23068D01*
X30663Y-23079D01*
X30806Y-23222D01*
X30806Y-23068D01*
X31278Y-24059D02*
X31028Y-24059D01*
X31207Y-23976D01*
X31028Y-23893D01*
X31278Y-23893D01*
X31254Y-23631D02*
X31266Y-23643D01*
X31278Y-23678D01*
X31278Y-23702D01*
X31266Y-23738D01*
X31242Y-23762D01*
X31219Y-23773D01*
X31171Y-23785D01*
X31135Y-23785D01*
X31088Y-23773D01*
X31064Y-23762D01*
X31040Y-23738D01*
X31028Y-23702D01*
X31028Y-23678D01*
X31040Y-23643D01*
X31052Y-23631D01*
X31278Y-23523D02*
X31028Y-23523D01*
X31028Y-23428D01*
X31040Y-23404D01*
X31052Y-23393D01*
X31076Y-23381D01*
X31112Y-23381D01*
X31135Y-23393D01*
X31147Y-23404D01*
X31159Y-23428D01*
X31159Y-23523D01*
X31278Y-23143D02*
X31278Y-23285D01*
X31278Y-23214D02*
X31028Y-23214D01*
X31064Y-23238D01*
X31088Y-23262D01*
X31100Y-23285D01*
X31028Y-23059D02*
X31028Y-22893D01*
X31278Y-23000D01*
X31028Y-22750D02*
X31028Y-22726D01*
X31040Y-22702D01*
X31052Y-22690D01*
X31076Y-22678D01*
X31123Y-22667D01*
X31183Y-22667D01*
X31231Y-22678D01*
X31254Y-22690D01*
X31266Y-22702D01*
X31278Y-22726D01*
X31278Y-22750D01*
X31266Y-22774D01*
X31254Y-22786D01*
X31231Y-22797D01*
X31183Y-22809D01*
X31123Y-22809D01*
X31076Y-22797D01*
X31052Y-22786D01*
X31040Y-22774D01*
X31028Y-22750D01*
X31052Y-22571D02*
X31040Y-22559D01*
X31028Y-22536D01*
X31028Y-22476D01*
X31040Y-22452D01*
X31052Y-22440D01*
X31076Y-22429D01*
X31100Y-22429D01*
X31135Y-22440D01*
X31278Y-22583D01*
X31278Y-22429D01*
X32831Y-29762D02*
X32819Y-29774D01*
X32784Y-29786D01*
X32760Y-29786D01*
X32724Y-29774D01*
X32700Y-29750D01*
X32689Y-29727D01*
X32677Y-29679D01*
X32677Y-29643D01*
X32689Y-29596D01*
X32700Y-29572D01*
X32724Y-29548D01*
X32760Y-29536D01*
X32784Y-29536D01*
X32819Y-29548D01*
X32831Y-29560D01*
X33069Y-29786D02*
X32927Y-29786D01*
X32998Y-29786D02*
X32998Y-29536D01*
X32974Y-29572D01*
X32950Y-29596D01*
X32927Y-29608D01*
X33307Y-29786D02*
X33165Y-29786D01*
X33236Y-29786D02*
X33236Y-29536D01*
X33212Y-29572D01*
X33188Y-29596D01*
X33165Y-29608D01*
X32748Y-30888D02*
X32606Y-30888D01*
X32677Y-30888D02*
X32677Y-30638D01*
X32653Y-30674D01*
X32629Y-30698D01*
X32606Y-30710D01*
X33153Y-30722D02*
X33153Y-30888D01*
X33046Y-30722D02*
X33046Y-30852D01*
X33057Y-30876D01*
X33081Y-30888D01*
X33117Y-30888D01*
X33141Y-30876D01*
X33153Y-30864D01*
X33355Y-30757D02*
X33272Y-30757D01*
X33272Y-30888D02*
X33272Y-30638D01*
X33391Y-30638D01*
M02*
