G04 (created by PCBNEW-RS274X (2012-01-19 BZR 3256)-stable) date 2/20/2012 8:09:15 PM*
G01*
G70*
G90*
%MOIN*%
G04 Gerber Fmt 3.4, Leading zero omitted, Abs format*
%FSLAX34Y34*%
G04 APERTURE LIST*
%ADD10C,0.006000*%
%ADD11C,0.015000*%
%ADD12R,0.075000X0.075000*%
%ADD13C,0.075000*%
%ADD14R,0.080000X0.080000*%
%ADD15C,0.080000*%
%ADD16C,0.076000*%
%ADD17C,0.059400*%
%ADD18R,0.075000X0.055000*%
%ADD19C,0.029800*%
%ADD20R,0.067200X0.040000*%
%ADD21R,0.138100X0.040000*%
%ADD22R,0.138100X0.047600*%
%ADD23R,0.043600X0.090900*%
%ADD24R,0.063300X0.047600*%
%ADD25R,0.055000X0.075000*%
G04 APERTURE END LIST*
G54D10*
G54D11*
X28250Y-42500D02*
X28250Y-22000D01*
X37750Y-42500D02*
X28250Y-42500D01*
X37750Y-22000D02*
X37750Y-42500D01*
X28250Y-22000D02*
X37750Y-22000D01*
G54D12*
X37000Y-22750D03*
G54D13*
X37000Y-23750D03*
X37000Y-24750D03*
X37000Y-25750D03*
X37000Y-26750D03*
X37000Y-27750D03*
X37000Y-28750D03*
X37000Y-29750D03*
X37000Y-30750D03*
X37000Y-31750D03*
X37000Y-32750D03*
X37000Y-33750D03*
X37000Y-34750D03*
X37000Y-35750D03*
X37000Y-36750D03*
X37000Y-37750D03*
X37000Y-38750D03*
X37000Y-39750D03*
X37000Y-40750D03*
X37000Y-41750D03*
G54D12*
X29000Y-22750D03*
G54D13*
X29000Y-23750D03*
X29000Y-24750D03*
X29000Y-25750D03*
X29000Y-26750D03*
X29000Y-27750D03*
X29000Y-28750D03*
X29000Y-29750D03*
X29000Y-30750D03*
X29000Y-31750D03*
X29000Y-32750D03*
X29000Y-33750D03*
X29000Y-34750D03*
X29000Y-35750D03*
X29000Y-36750D03*
X29000Y-37750D03*
X29000Y-38750D03*
X29000Y-39750D03*
X29000Y-40750D03*
X29000Y-41750D03*
G54D14*
X31500Y-36500D03*
G54D15*
X32500Y-36500D03*
X33500Y-36500D03*
X34500Y-36500D03*
G54D16*
X32000Y-32000D03*
X34000Y-32000D03*
G54D17*
X33447Y-33896D03*
X33447Y-34604D03*
G54D18*
X32750Y-23375D03*
X32750Y-22625D03*
G54D10*
G36*
X33656Y-29648D02*
X33091Y-29083D01*
X33302Y-28872D01*
X33867Y-29437D01*
X33656Y-29648D01*
X33656Y-29648D01*
G37*
G54D19*
X33441Y-28944D02*
X33795Y-29298D01*
X33580Y-28805D02*
X33934Y-29159D01*
X33720Y-28665D02*
X34074Y-29019D01*
X33859Y-28526D02*
X34213Y-28880D01*
X33998Y-28388D02*
X34352Y-28742D01*
X34137Y-28248D02*
X34491Y-28602D01*
X34276Y-28109D02*
X34630Y-28463D01*
X34415Y-27970D02*
X34769Y-28324D01*
X34555Y-27830D02*
X34909Y-28184D01*
X34694Y-27691D02*
X35048Y-28045D01*
X34833Y-27552D02*
X35187Y-27906D01*
X34823Y-26959D02*
X35177Y-26605D01*
X34683Y-26820D02*
X35037Y-26466D01*
X34544Y-26680D02*
X34898Y-26326D01*
X34405Y-26541D02*
X34759Y-26187D01*
X34265Y-26402D02*
X34619Y-26048D01*
X34127Y-26263D02*
X34481Y-25909D01*
X33988Y-26124D02*
X34342Y-25770D01*
X33848Y-25985D02*
X34202Y-25631D01*
X33709Y-25845D02*
X34063Y-25491D01*
X33570Y-25706D02*
X33924Y-25352D01*
X33430Y-25567D02*
X33784Y-25213D01*
X33292Y-25428D02*
X33646Y-25074D01*
X32327Y-25046D02*
X32681Y-25400D01*
X32188Y-25185D02*
X32542Y-25539D01*
X32049Y-25324D02*
X32403Y-25678D01*
X31909Y-25464D02*
X32263Y-25818D01*
X31770Y-25603D02*
X32124Y-25957D01*
X31632Y-25742D02*
X31986Y-26096D01*
X31492Y-25881D02*
X31846Y-26235D01*
X31353Y-26020D02*
X31707Y-26374D01*
X31214Y-26159D02*
X31568Y-26513D01*
X31074Y-26299D02*
X31428Y-26653D01*
X30935Y-26438D02*
X31289Y-26792D01*
X30796Y-26577D02*
X31150Y-26931D01*
X30813Y-27906D02*
X31167Y-27552D01*
X30952Y-28045D02*
X31306Y-27691D01*
X31231Y-28324D02*
X31585Y-27970D01*
X31086Y-28189D02*
X31440Y-27835D01*
X31370Y-28463D02*
X31724Y-28109D01*
X31508Y-28602D02*
X31862Y-28248D01*
X31648Y-28741D02*
X32002Y-28387D01*
X31787Y-28880D02*
X32141Y-28526D01*
X31926Y-29019D02*
X32280Y-28665D01*
X32066Y-29159D02*
X32420Y-28805D01*
X32203Y-29296D02*
X32557Y-28942D01*
X32342Y-29435D02*
X32696Y-29081D01*
G54D20*
X30193Y-22659D03*
G54D21*
X30547Y-23841D03*
G54D22*
X30547Y-23250D03*
G54D23*
X31689Y-23250D03*
G54D24*
X30921Y-23703D03*
X30921Y-23348D03*
G54D25*
X32625Y-30250D03*
X33375Y-30250D03*
M02*
