G04 (created by PCBNEW-RS274X (2012-01-19 BZR 3256)-stable) date 2/20/2012 8:09:15 PM*
G01*
G70*
G90*
%MOIN*%
G04 Gerber Fmt 3.4, Leading zero omitted, Abs format*
%FSLAX34Y34*%
G04 APERTURE LIST*
%ADD10C,0.006000*%
%ADD11C,0.015000*%
%ADD12R,0.075000X0.075000*%
%ADD13C,0.075000*%
%ADD14R,0.080000X0.080000*%
%ADD15C,0.080000*%
%ADD16C,0.076000*%
%ADD17C,0.059400*%
%ADD18R,0.055000X0.075000*%
%ADD19R,0.075000X0.055000*%
G04 APERTURE END LIST*
G54D10*
G54D11*
X28250Y-42500D02*
X28250Y-22000D01*
X37750Y-42500D02*
X28250Y-42500D01*
X37750Y-22000D02*
X37750Y-42500D01*
X28250Y-22000D02*
X37750Y-22000D01*
G54D12*
X37000Y-22750D03*
G54D13*
X37000Y-23750D03*
X37000Y-24750D03*
X37000Y-25750D03*
X37000Y-26750D03*
X37000Y-27750D03*
X37000Y-28750D03*
X37000Y-29750D03*
X37000Y-30750D03*
X37000Y-31750D03*
X37000Y-32750D03*
X37000Y-33750D03*
X37000Y-34750D03*
X37000Y-35750D03*
X37000Y-36750D03*
X37000Y-37750D03*
X37000Y-38750D03*
X37000Y-39750D03*
X37000Y-40750D03*
X37000Y-41750D03*
G54D12*
X29000Y-22750D03*
G54D13*
X29000Y-23750D03*
X29000Y-24750D03*
X29000Y-25750D03*
X29000Y-26750D03*
X29000Y-27750D03*
X29000Y-28750D03*
X29000Y-29750D03*
X29000Y-30750D03*
X29000Y-31750D03*
X29000Y-32750D03*
X29000Y-33750D03*
X29000Y-34750D03*
X29000Y-35750D03*
X29000Y-36750D03*
X29000Y-37750D03*
X29000Y-38750D03*
X29000Y-39750D03*
X29000Y-40750D03*
X29000Y-41750D03*
G54D14*
X31500Y-36500D03*
G54D15*
X32500Y-36500D03*
X33500Y-36500D03*
X34500Y-36500D03*
G54D16*
X32000Y-32000D03*
X34000Y-32000D03*
G54D17*
X33447Y-33896D03*
X33447Y-34604D03*
G54D10*
G36*
X30231Y-26344D02*
X29700Y-25813D01*
X30089Y-25424D01*
X30620Y-25955D01*
X30231Y-26344D01*
X30231Y-26344D01*
G37*
G36*
X30761Y-25814D02*
X30230Y-25283D01*
X30619Y-24894D01*
X31150Y-25425D01*
X30761Y-25814D01*
X30761Y-25814D01*
G37*
G36*
X35371Y-28714D02*
X35902Y-29245D01*
X35513Y-29634D01*
X34982Y-29103D01*
X35371Y-28714D01*
X35371Y-28714D01*
G37*
G36*
X34841Y-29244D02*
X35372Y-29775D01*
X34983Y-30164D01*
X34452Y-29633D01*
X34841Y-29244D01*
X34841Y-29244D01*
G37*
G36*
X33775Y-24556D02*
X34306Y-24025D01*
X34695Y-24414D01*
X34164Y-24945D01*
X33775Y-24556D01*
X33775Y-24556D01*
G37*
G36*
X34305Y-25086D02*
X34836Y-24555D01*
X35225Y-24944D01*
X34694Y-25475D01*
X34305Y-25086D01*
X34305Y-25086D01*
G37*
G36*
X31991Y-29926D02*
X31460Y-30457D01*
X31071Y-30068D01*
X31602Y-29537D01*
X31991Y-29926D01*
X31991Y-29926D01*
G37*
G36*
X31461Y-29396D02*
X30930Y-29927D01*
X30541Y-29538D01*
X31072Y-29007D01*
X31461Y-29396D01*
X31461Y-29396D01*
G37*
G36*
X31339Y-30610D02*
X30808Y-31141D01*
X30419Y-30752D01*
X30950Y-30221D01*
X31339Y-30610D01*
X31339Y-30610D01*
G37*
G36*
X30809Y-30080D02*
X30278Y-30611D01*
X29889Y-30222D01*
X30420Y-29691D01*
X30809Y-30080D01*
X30809Y-30080D01*
G37*
G54D18*
X30375Y-32000D03*
X31125Y-32000D03*
X35625Y-32000D03*
X34875Y-32000D03*
X34897Y-33494D03*
X34147Y-33494D03*
X34897Y-34494D03*
X34147Y-34494D03*
G54D19*
X34000Y-31125D03*
X34000Y-30375D03*
M02*
