G04 (created by PCBNEW-RS274X (2012-01-19 BZR 3256)-stable) date 2/20/2012 8:09:15 PM*
G01*
G70*
G90*
%MOIN*%
G04 Gerber Fmt 3.4, Leading zero omitted, Abs format*
%FSLAX34Y34*%
G04 APERTURE LIST*
%ADD10C,0.006000*%
%ADD11C,0.015000*%
%ADD12R,0.055000X0.055000*%
%ADD13C,0.055000*%
%ADD14R,0.060000X0.060000*%
%ADD15C,0.060000*%
%ADD16C,0.056000*%
%ADD17C,0.039400*%
%ADD18R,0.055000X0.035000*%
%ADD19C,0.009800*%
%ADD20R,0.047200X0.020000*%
%ADD21R,0.118100X0.020000*%
%ADD22R,0.118100X0.027600*%
%ADD23R,0.023600X0.070900*%
%ADD24R,0.043300X0.027600*%
%ADD25R,0.035000X0.055000*%
%ADD26C,0.035000*%
%ADD27C,0.008000*%
G04 APERTURE END LIST*
G54D10*
G54D11*
X28250Y-42500D02*
X28250Y-22000D01*
X37750Y-42500D02*
X28250Y-42500D01*
X37750Y-22000D02*
X37750Y-42500D01*
X28250Y-22000D02*
X37750Y-22000D01*
G54D12*
X37000Y-22750D03*
G54D13*
X37000Y-23750D03*
X37000Y-24750D03*
X37000Y-25750D03*
X37000Y-26750D03*
X37000Y-27750D03*
X37000Y-28750D03*
X37000Y-29750D03*
X37000Y-30750D03*
X37000Y-31750D03*
X37000Y-32750D03*
X37000Y-33750D03*
X37000Y-34750D03*
X37000Y-35750D03*
X37000Y-36750D03*
X37000Y-37750D03*
X37000Y-38750D03*
X37000Y-39750D03*
X37000Y-40750D03*
X37000Y-41750D03*
G54D12*
X29000Y-22750D03*
G54D13*
X29000Y-23750D03*
X29000Y-24750D03*
X29000Y-25750D03*
X29000Y-26750D03*
X29000Y-27750D03*
X29000Y-28750D03*
X29000Y-29750D03*
X29000Y-30750D03*
X29000Y-31750D03*
X29000Y-32750D03*
X29000Y-33750D03*
X29000Y-34750D03*
X29000Y-35750D03*
X29000Y-36750D03*
X29000Y-37750D03*
X29000Y-38750D03*
X29000Y-39750D03*
X29000Y-40750D03*
X29000Y-41750D03*
G54D14*
X31500Y-36500D03*
G54D15*
X32500Y-36500D03*
X33500Y-36500D03*
X34500Y-36500D03*
G54D16*
X32000Y-32000D03*
X34000Y-32000D03*
G54D17*
X33447Y-33896D03*
X33447Y-34604D03*
G54D18*
X32750Y-23375D03*
X32750Y-22625D03*
G54D10*
G36*
X33656Y-29507D02*
X33232Y-29083D01*
X33302Y-29013D01*
X33726Y-29437D01*
X33656Y-29507D01*
X33656Y-29507D01*
G37*
G54D19*
X33441Y-28944D02*
X33795Y-29298D01*
X33580Y-28805D02*
X33934Y-29159D01*
X33720Y-28665D02*
X34074Y-29019D01*
X33859Y-28526D02*
X34213Y-28880D01*
X33998Y-28388D02*
X34352Y-28742D01*
X34137Y-28248D02*
X34491Y-28602D01*
X34276Y-28109D02*
X34630Y-28463D01*
X34415Y-27970D02*
X34769Y-28324D01*
X34555Y-27830D02*
X34909Y-28184D01*
X34694Y-27691D02*
X35048Y-28045D01*
X34833Y-27552D02*
X35187Y-27906D01*
X34823Y-26959D02*
X35177Y-26605D01*
X34683Y-26820D02*
X35037Y-26466D01*
X34544Y-26680D02*
X34898Y-26326D01*
X34405Y-26541D02*
X34759Y-26187D01*
X34265Y-26402D02*
X34619Y-26048D01*
X34127Y-26263D02*
X34481Y-25909D01*
X33988Y-26124D02*
X34342Y-25770D01*
X33848Y-25985D02*
X34202Y-25631D01*
X33709Y-25845D02*
X34063Y-25491D01*
X33570Y-25706D02*
X33924Y-25352D01*
X33430Y-25567D02*
X33784Y-25213D01*
X33292Y-25428D02*
X33646Y-25074D01*
X32327Y-25046D02*
X32681Y-25400D01*
X32188Y-25185D02*
X32542Y-25539D01*
X32049Y-25324D02*
X32403Y-25678D01*
X31909Y-25464D02*
X32263Y-25818D01*
X31770Y-25603D02*
X32124Y-25957D01*
X31632Y-25742D02*
X31986Y-26096D01*
X31492Y-25881D02*
X31846Y-26235D01*
X31353Y-26020D02*
X31707Y-26374D01*
X31214Y-26159D02*
X31568Y-26513D01*
X31074Y-26299D02*
X31428Y-26653D01*
X30935Y-26438D02*
X31289Y-26792D01*
X30796Y-26577D02*
X31150Y-26931D01*
X30813Y-27906D02*
X31167Y-27552D01*
X30952Y-28045D02*
X31306Y-27691D01*
X31231Y-28324D02*
X31585Y-27970D01*
X31086Y-28189D02*
X31440Y-27835D01*
X31370Y-28463D02*
X31724Y-28109D01*
X31508Y-28602D02*
X31862Y-28248D01*
X31648Y-28741D02*
X32002Y-28387D01*
X31787Y-28880D02*
X32141Y-28526D01*
X31926Y-29019D02*
X32280Y-28665D01*
X32066Y-29159D02*
X32420Y-28805D01*
X32203Y-29296D02*
X32557Y-28942D01*
X32342Y-29435D02*
X32696Y-29081D01*
G54D20*
X30193Y-22659D03*
G54D21*
X30547Y-23841D03*
G54D22*
X30547Y-23250D03*
G54D23*
X31689Y-23250D03*
G54D24*
X30921Y-23703D03*
X30921Y-23348D03*
G54D25*
X32625Y-30250D03*
X33375Y-30250D03*
G54D26*
X30551Y-26325D03*
X35037Y-28616D03*
X33899Y-24831D03*
X32085Y-29687D03*
X32607Y-23949D03*
X33479Y-29717D03*
X34441Y-25455D03*
X33680Y-26413D03*
X34466Y-29965D03*
G54D27*
X31500Y-30272D02*
X32085Y-29687D01*
X32563Y-23905D02*
X32563Y-23841D01*
X32607Y-23949D02*
X32563Y-23905D01*
X31241Y-23841D02*
X32563Y-23841D01*
X32750Y-23654D02*
X32750Y-23653D01*
X32563Y-23841D02*
X32750Y-23654D01*
X33479Y-25251D02*
X33469Y-25251D01*
X33899Y-24831D02*
X33479Y-25251D01*
X30547Y-23841D02*
X31241Y-23841D01*
X32750Y-23375D02*
X32750Y-23653D01*
X31500Y-36500D02*
X31500Y-36097D01*
X31500Y-36097D02*
X31500Y-30272D01*
X34592Y-28171D02*
X35037Y-28616D01*
X34592Y-28147D02*
X34592Y-28171D01*
X30973Y-26747D02*
X30551Y-26325D01*
X30973Y-26754D02*
X30973Y-26747D01*
X32514Y-29258D02*
X32085Y-29687D01*
X32519Y-29258D02*
X32514Y-29258D01*
X33479Y-29717D02*
X33479Y-30146D01*
X33479Y-30146D02*
X33375Y-30250D01*
X33479Y-29260D02*
X33479Y-29717D01*
X34904Y-39654D02*
X37000Y-41750D01*
X34904Y-29015D02*
X34904Y-39654D01*
X34314Y-28425D02*
X34904Y-29015D01*
X35047Y-28322D02*
X35174Y-28322D01*
X34732Y-28007D02*
X35047Y-28322D01*
X35174Y-28322D02*
X35317Y-28465D01*
X35317Y-28465D02*
X35317Y-36067D01*
X35317Y-36067D02*
X37000Y-37750D01*
X34871Y-27868D02*
X35156Y-28153D01*
X35460Y-35210D02*
X37000Y-36750D01*
X35460Y-28405D02*
X35460Y-35210D01*
X35208Y-28153D02*
X35460Y-28405D01*
X35156Y-28153D02*
X35208Y-28153D01*
X31140Y-25529D02*
X31669Y-26058D01*
X29221Y-25529D02*
X31140Y-25529D01*
X29000Y-25750D02*
X29221Y-25529D01*
X29000Y-26750D02*
X30053Y-25697D01*
X30053Y-25697D02*
X31030Y-25697D01*
X31030Y-25697D02*
X31530Y-26197D01*
X29477Y-26800D02*
X29477Y-27273D01*
X30436Y-25841D02*
X29477Y-26800D01*
X30896Y-25841D02*
X30436Y-25841D01*
X31391Y-26336D02*
X30896Y-25841D01*
X29477Y-27273D02*
X29000Y-27750D01*
X29739Y-26741D02*
X30446Y-26034D01*
X29739Y-28011D02*
X29739Y-26741D01*
X29000Y-28750D02*
X29739Y-28011D01*
X30446Y-26034D02*
X30809Y-26034D01*
X30809Y-26034D02*
X31251Y-26476D01*
X29524Y-29195D02*
X29524Y-30226D01*
X29524Y-30226D02*
X29000Y-30750D01*
X30990Y-27729D02*
X29524Y-29195D01*
X29738Y-31012D02*
X29000Y-31750D01*
X29738Y-29259D02*
X29738Y-31012D01*
X31129Y-27868D02*
X29738Y-29259D01*
X35603Y-34353D02*
X37000Y-35750D01*
X35603Y-28322D02*
X35603Y-34353D01*
X35010Y-27729D02*
X35603Y-28322D01*
X35000Y-26782D02*
X35000Y-26800D01*
X35000Y-26800D02*
X35889Y-27689D01*
X35889Y-27689D02*
X35889Y-32639D01*
X35889Y-32639D02*
X37000Y-33750D01*
X34860Y-26643D02*
X35146Y-26357D01*
X36033Y-31783D02*
X37000Y-32750D01*
X36033Y-27630D02*
X36033Y-31783D01*
X35749Y-27346D02*
X36033Y-27630D01*
X35749Y-27092D02*
X35749Y-27346D01*
X35676Y-27019D02*
X35749Y-27092D01*
X35676Y-26888D02*
X35676Y-27019D01*
X35146Y-26357D02*
X35676Y-26888D01*
X35892Y-26900D02*
X35892Y-27286D01*
X35136Y-26144D02*
X35892Y-26900D01*
X35080Y-26144D02*
X35136Y-26144D01*
X34721Y-26503D02*
X35080Y-26144D01*
X35892Y-27286D02*
X36176Y-27570D01*
X36176Y-27570D02*
X36176Y-30926D01*
X36176Y-30926D02*
X37000Y-31750D01*
X36319Y-30069D02*
X37000Y-30750D01*
X36319Y-27510D02*
X36319Y-30069D01*
X36035Y-27226D02*
X36319Y-27510D01*
X36035Y-26840D02*
X36035Y-27226D01*
X35196Y-26001D02*
X36035Y-26840D01*
X34945Y-26001D02*
X35196Y-26001D01*
X34582Y-26364D02*
X34945Y-26001D01*
X36463Y-27451D02*
X36463Y-29213D01*
X34442Y-26225D02*
X34861Y-25806D01*
X34861Y-25806D02*
X35264Y-25806D01*
X35264Y-25806D02*
X36184Y-26726D01*
X36184Y-26726D02*
X36184Y-27172D01*
X36184Y-27172D02*
X36463Y-27451D01*
X36463Y-29213D02*
X37000Y-29750D01*
X31947Y-25780D02*
X31662Y-25495D01*
X30255Y-24088D02*
X31662Y-25495D01*
X29338Y-24088D02*
X30255Y-24088D01*
X29000Y-23750D02*
X29338Y-24088D01*
X30640Y-24750D02*
X29000Y-24750D01*
X31809Y-25919D02*
X30640Y-24750D01*
X37402Y-37985D02*
X37027Y-38360D01*
X36379Y-40129D02*
X37000Y-40750D01*
X36379Y-38624D02*
X36379Y-40129D01*
X36643Y-38360D02*
X36379Y-38624D01*
X37027Y-38360D02*
X36643Y-38360D01*
X37402Y-34487D02*
X37402Y-37985D01*
X37055Y-34140D02*
X37402Y-34487D01*
X36627Y-34140D02*
X37055Y-34140D01*
X35746Y-28103D02*
X35746Y-33259D01*
X34019Y-26376D02*
X35746Y-28103D01*
X34019Y-26371D02*
X34019Y-26376D01*
X34304Y-26086D02*
X34019Y-26371D01*
X35746Y-33259D02*
X36627Y-34140D01*
X35333Y-25662D02*
X36369Y-26698D01*
X36369Y-26698D02*
X36369Y-27153D01*
X34379Y-25733D02*
X34557Y-25733D01*
X34557Y-25733D02*
X34628Y-25662D01*
X36607Y-27391D02*
X36607Y-27939D01*
X34165Y-25947D02*
X34379Y-25733D01*
X37546Y-39204D02*
X37000Y-39750D01*
X34628Y-25662D02*
X35333Y-25662D01*
X37028Y-28360D02*
X37357Y-28360D01*
X36607Y-27939D02*
X37028Y-28360D01*
X37546Y-28549D02*
X37546Y-39204D01*
X37357Y-28360D02*
X37546Y-28549D01*
X36369Y-27153D02*
X36607Y-27391D01*
X34171Y-25383D02*
X34243Y-25455D01*
X34243Y-25455D02*
X34441Y-25455D01*
X33886Y-25668D02*
X34171Y-25383D01*
X37000Y-27482D02*
X37000Y-27750D01*
X36607Y-27089D02*
X37000Y-27482D01*
X36607Y-26728D02*
X36607Y-27089D01*
X35055Y-25176D02*
X36607Y-26728D01*
X34100Y-25176D02*
X35055Y-25176D01*
X33747Y-25529D02*
X34100Y-25176D01*
X34803Y-24553D02*
X33746Y-24553D01*
X32504Y-25223D02*
X32790Y-25509D01*
X37000Y-26750D02*
X34803Y-24553D01*
X33746Y-24553D02*
X32790Y-25509D01*
X32169Y-25166D02*
X32365Y-25362D01*
X32169Y-24986D02*
X32169Y-25166D01*
X32603Y-24552D02*
X32169Y-24986D01*
X33317Y-24552D02*
X32603Y-24552D01*
X33460Y-24409D02*
X33317Y-24552D01*
X35659Y-24409D02*
X33460Y-24409D01*
X37000Y-25750D02*
X35659Y-24409D01*
X31977Y-24975D02*
X31977Y-25252D01*
X32543Y-24409D02*
X31977Y-24975D01*
X37000Y-24750D02*
X36516Y-24266D01*
X33362Y-24266D02*
X33219Y-24409D01*
X33219Y-24409D02*
X32543Y-24409D01*
X31977Y-25252D02*
X32226Y-25501D01*
X36516Y-24266D02*
X33362Y-24266D01*
X32086Y-25641D02*
X31800Y-25355D01*
X31800Y-24949D02*
X31800Y-25355D01*
X32483Y-24266D02*
X31800Y-24949D01*
X33159Y-24266D02*
X32483Y-24266D01*
X33675Y-23750D02*
X33159Y-24266D01*
X37000Y-23750D02*
X33675Y-23750D01*
X33680Y-26153D02*
X33680Y-26413D01*
X34025Y-25808D02*
X33680Y-26153D01*
X29984Y-31766D02*
X29984Y-29291D01*
X29000Y-32750D02*
X29984Y-31766D01*
X29984Y-29291D02*
X31263Y-28012D01*
X30168Y-29387D02*
X31408Y-28147D01*
X30168Y-32582D02*
X30168Y-29387D01*
X29000Y-33750D02*
X30168Y-32582D01*
X29000Y-34750D02*
X30506Y-33244D01*
X30506Y-33244D02*
X30506Y-29327D01*
X30506Y-29327D02*
X31547Y-28286D01*
X30690Y-29420D02*
X31685Y-28425D01*
X30690Y-34060D02*
X30690Y-29420D01*
X29000Y-35750D02*
X30690Y-34060D01*
X31825Y-28564D02*
X31540Y-28849D01*
X30833Y-34917D02*
X29000Y-36750D01*
X30833Y-29556D02*
X30833Y-34917D01*
X31540Y-28849D02*
X30833Y-29556D01*
X31817Y-29128D02*
X30976Y-29969D01*
X32103Y-28842D02*
X31817Y-29128D01*
X30976Y-35774D02*
X29000Y-37750D01*
X30976Y-29969D02*
X30976Y-35774D01*
X29621Y-38129D02*
X29000Y-38750D01*
X29621Y-37332D02*
X29621Y-38129D01*
X31239Y-35714D02*
X29621Y-37332D01*
X31239Y-29986D02*
X31239Y-35714D01*
X32243Y-28982D02*
X31239Y-29986D01*
X33618Y-29121D02*
X33836Y-29339D01*
X33836Y-29339D02*
X33836Y-30979D01*
X33836Y-30979D02*
X31949Y-32866D01*
X31949Y-32866D02*
X31949Y-36801D01*
X31949Y-36801D02*
X29000Y-39750D01*
X33025Y-36725D02*
X29000Y-40750D01*
X33025Y-34318D02*
X33025Y-36725D01*
X33447Y-33896D02*
X33025Y-34318D01*
X33447Y-31587D02*
X33447Y-33896D01*
X34043Y-30991D02*
X33447Y-31587D01*
X34043Y-29268D02*
X34043Y-30991D01*
X33757Y-28982D02*
X34043Y-29268D01*
X34000Y-36750D02*
X29000Y-41750D01*
X33591Y-31808D02*
X34187Y-31212D01*
X33447Y-34604D02*
X33861Y-34190D01*
X34187Y-31212D02*
X34187Y-29132D01*
X33861Y-34190D02*
X33861Y-33428D01*
X34000Y-35157D02*
X34000Y-36750D01*
X33591Y-33158D02*
X33591Y-31808D01*
X33447Y-34604D02*
X34000Y-35157D01*
X34187Y-29132D02*
X33897Y-28842D01*
X33861Y-33428D02*
X33591Y-33158D01*
X36497Y-22625D02*
X36622Y-22750D01*
X32855Y-29024D02*
X32665Y-28834D01*
X33322Y-27076D02*
X33322Y-25675D01*
X32249Y-28149D02*
X33283Y-27115D01*
X33283Y-27115D02*
X34168Y-28001D01*
X34453Y-28286D02*
X34168Y-28001D01*
X32625Y-30250D02*
X32625Y-29872D01*
X32625Y-29872D02*
X32855Y-29642D01*
X32855Y-29642D02*
X32855Y-29024D01*
X32249Y-28418D02*
X32277Y-28418D01*
X30566Y-22625D02*
X32750Y-22625D01*
X33283Y-27115D02*
X33322Y-27076D01*
X30193Y-22659D02*
X30532Y-22659D01*
X33607Y-25390D02*
X33322Y-25675D01*
X32249Y-28418D02*
X32249Y-28149D01*
X32380Y-29119D02*
X32665Y-28834D01*
X31964Y-28703D02*
X32249Y-28418D01*
X31112Y-26615D02*
X31397Y-26900D01*
X37000Y-22750D02*
X36622Y-22750D01*
X32750Y-22625D02*
X36497Y-22625D01*
X30532Y-22659D02*
X30566Y-22625D01*
X32665Y-28806D02*
X32665Y-28834D01*
X31208Y-27108D02*
X31397Y-26919D01*
X31397Y-26919D02*
X31397Y-26900D01*
X32249Y-28149D02*
X31208Y-27108D01*
X29000Y-29750D02*
X29000Y-29316D01*
X29000Y-29316D02*
X31208Y-27108D01*
X32277Y-28418D02*
X32665Y-28806D01*
X31591Y-22815D02*
X31613Y-22793D01*
X31591Y-22862D02*
X31591Y-22815D01*
X30547Y-23250D02*
X31241Y-23250D01*
X31689Y-23250D02*
X31689Y-22793D01*
X31613Y-22793D02*
X31689Y-22793D01*
X30547Y-23250D02*
X29854Y-23250D01*
X31241Y-23250D02*
X31241Y-23212D01*
X31241Y-23212D02*
X31591Y-22862D01*
X29854Y-23226D02*
X29854Y-23250D01*
X29000Y-22750D02*
X29378Y-22750D01*
X29378Y-22750D02*
X29854Y-23226D01*
X34036Y-28703D02*
X33751Y-28418D01*
X32000Y-32000D02*
X32999Y-31001D01*
X32999Y-31001D02*
X32999Y-29165D01*
X32999Y-29165D02*
X33746Y-28418D01*
X33746Y-28418D02*
X33751Y-28418D01*
X34175Y-28565D02*
X34461Y-28850D01*
X34460Y-29959D02*
X34466Y-29965D01*
X34460Y-28851D02*
X34460Y-29959D01*
X34461Y-28850D02*
X34460Y-28851D01*
M02*
