G04 (created by PCBNEW-RS274X (2012-01-19 BZR 3256)-stable) date 2/20/2012 8:09:15 PM*
G01*
G70*
G90*
%MOIN*%
G04 Gerber Fmt 3.4, Leading zero omitted, Abs format*
%FSLAX34Y34*%
G04 APERTURE LIST*
%ADD10C,0.006000*%
%ADD11C,0.015000*%
%ADD12C,0.005000*%
G04 APERTURE END LIST*
G54D10*
G54D11*
X28250Y-42500D02*
X28250Y-22000D01*
X37750Y-42500D02*
X28250Y-42500D01*
X37750Y-22000D02*
X37750Y-42500D01*
X28250Y-22000D02*
X37750Y-22000D01*
G54D12*
X29803Y-25866D02*
X29802Y-25875D01*
X29799Y-25885D01*
X29794Y-25893D01*
X29788Y-25901D01*
X29780Y-25907D01*
X29772Y-25912D01*
X29763Y-25914D01*
X29753Y-25915D01*
X29744Y-25915D01*
X29735Y-25912D01*
X29726Y-25907D01*
X29719Y-25901D01*
X29712Y-25894D01*
X29708Y-25885D01*
X29705Y-25876D01*
X29704Y-25866D01*
X29704Y-25857D01*
X29707Y-25848D01*
X29711Y-25839D01*
X29718Y-25832D01*
X29725Y-25825D01*
X29733Y-25821D01*
X29743Y-25818D01*
X29752Y-25817D01*
X29761Y-25817D01*
X29771Y-25820D01*
X29779Y-25824D01*
X29787Y-25830D01*
X29793Y-25838D01*
X29798Y-25846D01*
X29801Y-25855D01*
X29802Y-25865D01*
X29803Y-25866D01*
X30071Y-25548D02*
X29789Y-25831D01*
X29789Y-25831D02*
X30213Y-26255D01*
X30213Y-26255D02*
X30496Y-25973D01*
X30779Y-25690D02*
X31061Y-25407D01*
X31061Y-25407D02*
X30637Y-24983D01*
X30637Y-24983D02*
X30354Y-25265D01*
X35899Y-29192D02*
X35898Y-29201D01*
X35895Y-29211D01*
X35890Y-29219D01*
X35884Y-29227D01*
X35876Y-29233D01*
X35868Y-29238D01*
X35859Y-29240D01*
X35849Y-29241D01*
X35840Y-29241D01*
X35831Y-29238D01*
X35822Y-29233D01*
X35815Y-29227D01*
X35808Y-29220D01*
X35804Y-29211D01*
X35801Y-29202D01*
X35800Y-29192D01*
X35800Y-29183D01*
X35803Y-29174D01*
X35807Y-29165D01*
X35814Y-29158D01*
X35821Y-29151D01*
X35829Y-29147D01*
X35839Y-29144D01*
X35848Y-29143D01*
X35857Y-29143D01*
X35867Y-29146D01*
X35875Y-29150D01*
X35883Y-29156D01*
X35889Y-29164D01*
X35894Y-29172D01*
X35897Y-29181D01*
X35898Y-29191D01*
X35899Y-29192D01*
X35531Y-29510D02*
X35813Y-29227D01*
X35813Y-29227D02*
X35389Y-28803D01*
X35389Y-28803D02*
X35106Y-29085D01*
X34823Y-29368D02*
X34541Y-29651D01*
X34541Y-29651D02*
X34965Y-30075D01*
X34965Y-30075D02*
X35248Y-29793D01*
X34303Y-24078D02*
X34302Y-24087D01*
X34299Y-24097D01*
X34294Y-24105D01*
X34288Y-24113D01*
X34280Y-24119D01*
X34272Y-24124D01*
X34263Y-24126D01*
X34253Y-24127D01*
X34244Y-24127D01*
X34235Y-24124D01*
X34226Y-24119D01*
X34219Y-24113D01*
X34212Y-24106D01*
X34208Y-24097D01*
X34205Y-24088D01*
X34204Y-24078D01*
X34204Y-24069D01*
X34207Y-24060D01*
X34211Y-24051D01*
X34218Y-24044D01*
X34225Y-24037D01*
X34233Y-24033D01*
X34243Y-24030D01*
X34252Y-24029D01*
X34261Y-24029D01*
X34271Y-24032D01*
X34279Y-24036D01*
X34287Y-24042D01*
X34293Y-24050D01*
X34298Y-24058D01*
X34301Y-24067D01*
X34302Y-24077D01*
X34303Y-24078D01*
X34571Y-24396D02*
X34288Y-24114D01*
X34288Y-24114D02*
X33864Y-24538D01*
X33864Y-24538D02*
X34146Y-24821D01*
X34429Y-25104D02*
X34712Y-25386D01*
X34712Y-25386D02*
X35136Y-24962D01*
X35136Y-24962D02*
X34854Y-24679D01*
X31563Y-30404D02*
X31562Y-30413D01*
X31559Y-30423D01*
X31554Y-30431D01*
X31548Y-30439D01*
X31540Y-30445D01*
X31532Y-30450D01*
X31523Y-30452D01*
X31513Y-30453D01*
X31504Y-30453D01*
X31495Y-30450D01*
X31486Y-30445D01*
X31479Y-30439D01*
X31472Y-30432D01*
X31468Y-30423D01*
X31465Y-30414D01*
X31464Y-30404D01*
X31464Y-30395D01*
X31467Y-30386D01*
X31471Y-30377D01*
X31478Y-30370D01*
X31485Y-30363D01*
X31493Y-30359D01*
X31503Y-30356D01*
X31512Y-30355D01*
X31521Y-30355D01*
X31531Y-30358D01*
X31539Y-30362D01*
X31547Y-30368D01*
X31553Y-30376D01*
X31558Y-30384D01*
X31561Y-30393D01*
X31562Y-30403D01*
X31563Y-30404D01*
X31195Y-30086D02*
X31478Y-30368D01*
X31478Y-30368D02*
X31902Y-29944D01*
X31902Y-29944D02*
X31620Y-29661D01*
X31337Y-29378D02*
X31054Y-29096D01*
X31054Y-29096D02*
X30630Y-29520D01*
X30630Y-29520D02*
X30912Y-29803D01*
X30911Y-31088D02*
X30910Y-31097D01*
X30907Y-31107D01*
X30902Y-31115D01*
X30896Y-31123D01*
X30888Y-31129D01*
X30880Y-31134D01*
X30871Y-31136D01*
X30861Y-31137D01*
X30852Y-31137D01*
X30843Y-31134D01*
X30834Y-31129D01*
X30827Y-31123D01*
X30820Y-31116D01*
X30816Y-31107D01*
X30813Y-31098D01*
X30812Y-31088D01*
X30812Y-31079D01*
X30815Y-31070D01*
X30819Y-31061D01*
X30826Y-31054D01*
X30833Y-31047D01*
X30841Y-31043D01*
X30851Y-31040D01*
X30860Y-31039D01*
X30869Y-31039D01*
X30879Y-31042D01*
X30887Y-31046D01*
X30895Y-31052D01*
X30901Y-31060D01*
X30906Y-31068D01*
X30909Y-31077D01*
X30910Y-31087D01*
X30911Y-31088D01*
X30543Y-30770D02*
X30826Y-31052D01*
X30826Y-31052D02*
X31250Y-30628D01*
X31250Y-30628D02*
X30968Y-30345D01*
X30685Y-30062D02*
X30402Y-29780D01*
X30402Y-29780D02*
X29978Y-30204D01*
X29978Y-30204D02*
X30260Y-30487D01*
X30150Y-31700D02*
X30149Y-31709D01*
X30146Y-31719D01*
X30141Y-31727D01*
X30135Y-31735D01*
X30127Y-31741D01*
X30119Y-31746D01*
X30110Y-31748D01*
X30100Y-31749D01*
X30091Y-31749D01*
X30082Y-31746D01*
X30073Y-31741D01*
X30066Y-31735D01*
X30059Y-31728D01*
X30055Y-31719D01*
X30052Y-31710D01*
X30051Y-31700D01*
X30051Y-31691D01*
X30054Y-31682D01*
X30058Y-31673D01*
X30065Y-31666D01*
X30072Y-31659D01*
X30080Y-31655D01*
X30090Y-31652D01*
X30099Y-31651D01*
X30108Y-31651D01*
X30118Y-31654D01*
X30126Y-31658D01*
X30134Y-31664D01*
X30140Y-31672D01*
X30145Y-31680D01*
X30148Y-31689D01*
X30149Y-31699D01*
X30150Y-31700D01*
X30550Y-31700D02*
X30150Y-31700D01*
X30150Y-31700D02*
X30150Y-32300D01*
X30150Y-32300D02*
X30550Y-32300D01*
X30950Y-32300D02*
X31350Y-32300D01*
X31350Y-32300D02*
X31350Y-31700D01*
X31350Y-31700D02*
X30950Y-31700D01*
X35950Y-32300D02*
X35949Y-32309D01*
X35946Y-32319D01*
X35941Y-32327D01*
X35935Y-32335D01*
X35927Y-32341D01*
X35919Y-32346D01*
X35910Y-32348D01*
X35900Y-32349D01*
X35891Y-32349D01*
X35882Y-32346D01*
X35873Y-32341D01*
X35866Y-32335D01*
X35859Y-32328D01*
X35855Y-32319D01*
X35852Y-32310D01*
X35851Y-32300D01*
X35851Y-32291D01*
X35854Y-32282D01*
X35858Y-32273D01*
X35865Y-32266D01*
X35872Y-32259D01*
X35880Y-32255D01*
X35890Y-32252D01*
X35899Y-32251D01*
X35908Y-32251D01*
X35918Y-32254D01*
X35926Y-32258D01*
X35934Y-32264D01*
X35940Y-32272D01*
X35945Y-32280D01*
X35948Y-32289D01*
X35949Y-32299D01*
X35950Y-32300D01*
X35450Y-32300D02*
X35850Y-32300D01*
X35850Y-32300D02*
X35850Y-31700D01*
X35850Y-31700D02*
X35450Y-31700D01*
X35050Y-31700D02*
X34650Y-31700D01*
X34650Y-31700D02*
X34650Y-32300D01*
X34650Y-32300D02*
X35050Y-32300D01*
X35222Y-33794D02*
X35221Y-33803D01*
X35218Y-33813D01*
X35213Y-33821D01*
X35207Y-33829D01*
X35199Y-33835D01*
X35191Y-33840D01*
X35182Y-33842D01*
X35172Y-33843D01*
X35163Y-33843D01*
X35154Y-33840D01*
X35145Y-33835D01*
X35138Y-33829D01*
X35131Y-33822D01*
X35127Y-33813D01*
X35124Y-33804D01*
X35123Y-33794D01*
X35123Y-33785D01*
X35126Y-33776D01*
X35130Y-33767D01*
X35137Y-33760D01*
X35144Y-33753D01*
X35152Y-33749D01*
X35162Y-33746D01*
X35171Y-33745D01*
X35180Y-33745D01*
X35190Y-33748D01*
X35198Y-33752D01*
X35206Y-33758D01*
X35212Y-33766D01*
X35217Y-33774D01*
X35220Y-33783D01*
X35221Y-33793D01*
X35222Y-33794D01*
X34722Y-33794D02*
X35122Y-33794D01*
X35122Y-33794D02*
X35122Y-33194D01*
X35122Y-33194D02*
X34722Y-33194D01*
X34322Y-33194D02*
X33922Y-33194D01*
X33922Y-33194D02*
X33922Y-33794D01*
X33922Y-33794D02*
X34322Y-33794D01*
X35222Y-34794D02*
X35221Y-34803D01*
X35218Y-34813D01*
X35213Y-34821D01*
X35207Y-34829D01*
X35199Y-34835D01*
X35191Y-34840D01*
X35182Y-34842D01*
X35172Y-34843D01*
X35163Y-34843D01*
X35154Y-34840D01*
X35145Y-34835D01*
X35138Y-34829D01*
X35131Y-34822D01*
X35127Y-34813D01*
X35124Y-34804D01*
X35123Y-34794D01*
X35123Y-34785D01*
X35126Y-34776D01*
X35130Y-34767D01*
X35137Y-34760D01*
X35144Y-34753D01*
X35152Y-34749D01*
X35162Y-34746D01*
X35171Y-34745D01*
X35180Y-34745D01*
X35190Y-34748D01*
X35198Y-34752D01*
X35206Y-34758D01*
X35212Y-34766D01*
X35217Y-34774D01*
X35220Y-34783D01*
X35221Y-34793D01*
X35222Y-34794D01*
X34722Y-34794D02*
X35122Y-34794D01*
X35122Y-34794D02*
X35122Y-34194D01*
X35122Y-34194D02*
X34722Y-34194D01*
X34322Y-34194D02*
X33922Y-34194D01*
X33922Y-34194D02*
X33922Y-34794D01*
X33922Y-34794D02*
X34322Y-34794D01*
X33750Y-31400D02*
X33749Y-31409D01*
X33746Y-31419D01*
X33741Y-31427D01*
X33735Y-31435D01*
X33727Y-31441D01*
X33719Y-31446D01*
X33710Y-31448D01*
X33700Y-31449D01*
X33691Y-31449D01*
X33682Y-31446D01*
X33673Y-31441D01*
X33666Y-31435D01*
X33659Y-31428D01*
X33655Y-31419D01*
X33652Y-31410D01*
X33651Y-31400D01*
X33651Y-31391D01*
X33654Y-31382D01*
X33658Y-31373D01*
X33665Y-31366D01*
X33672Y-31359D01*
X33680Y-31355D01*
X33690Y-31352D01*
X33699Y-31351D01*
X33708Y-31351D01*
X33718Y-31354D01*
X33726Y-31358D01*
X33734Y-31364D01*
X33740Y-31372D01*
X33745Y-31380D01*
X33748Y-31389D01*
X33749Y-31399D01*
X33750Y-31400D01*
X33700Y-30950D02*
X33700Y-31350D01*
X33700Y-31350D02*
X34300Y-31350D01*
X34300Y-31350D02*
X34300Y-30950D01*
X34300Y-30550D02*
X34300Y-30150D01*
X34300Y-30150D02*
X33700Y-30150D01*
X33700Y-30150D02*
X33700Y-30550D01*
X30084Y-25222D02*
X30101Y-25222D01*
X30134Y-25205D01*
X30151Y-25189D01*
X30168Y-25155D01*
X30168Y-25121D01*
X30160Y-25097D01*
X30134Y-25054D01*
X30109Y-25029D01*
X30067Y-25004D01*
X30042Y-24995D01*
X30008Y-24995D01*
X29975Y-25012D01*
X29958Y-25029D01*
X29941Y-25062D01*
X29941Y-25079D01*
X29933Y-25407D02*
X30033Y-25307D01*
X29983Y-25357D02*
X29806Y-25180D01*
X29849Y-25189D01*
X29883Y-25189D01*
X29907Y-25181D01*
X31278Y-25715D02*
X31379Y-25614D01*
X31328Y-25664D02*
X31152Y-25488D01*
X31194Y-25496D01*
X31228Y-25496D01*
X31253Y-25488D01*
X30992Y-25647D02*
X30975Y-25664D01*
X30966Y-25690D01*
X30966Y-25707D01*
X30975Y-25732D01*
X31000Y-25773D01*
X31043Y-25816D01*
X31084Y-25842D01*
X31109Y-25850D01*
X31126Y-25850D01*
X31152Y-25841D01*
X31169Y-25824D01*
X31177Y-25799D01*
X31177Y-25782D01*
X31169Y-25758D01*
X31143Y-25715D01*
X31101Y-25673D01*
X31059Y-25648D01*
X31034Y-25639D01*
X31017Y-25639D01*
X30992Y-25647D01*
X30824Y-25816D02*
X30807Y-25833D01*
X30798Y-25858D01*
X30798Y-25875D01*
X30807Y-25901D01*
X30832Y-25942D01*
X30874Y-25984D01*
X30916Y-26010D01*
X30941Y-26018D01*
X30958Y-26018D01*
X30983Y-26009D01*
X31000Y-25992D01*
X31009Y-25967D01*
X31009Y-25950D01*
X31000Y-25926D01*
X30975Y-25884D01*
X30932Y-25841D01*
X30891Y-25816D01*
X30866Y-25807D01*
X30849Y-25807D01*
X30824Y-25816D01*
X30614Y-26145D02*
X30731Y-26262D01*
X30630Y-26161D02*
X30614Y-26160D01*
X30589Y-26169D01*
X30563Y-26195D01*
X30554Y-26219D01*
X30563Y-26245D01*
X30655Y-26338D01*
X30420Y-26388D02*
X30479Y-26329D01*
X30571Y-26422D02*
X30394Y-26245D01*
X30310Y-26329D01*
X34887Y-29080D02*
X34904Y-29080D01*
X34937Y-29063D01*
X34954Y-29047D01*
X34971Y-29013D01*
X34971Y-28979D01*
X34963Y-28955D01*
X34937Y-28912D01*
X34912Y-28887D01*
X34870Y-28862D01*
X34845Y-28853D01*
X34811Y-28853D01*
X34778Y-28870D01*
X34761Y-28887D01*
X34744Y-28920D01*
X34744Y-28937D01*
X34676Y-29005D02*
X34659Y-29005D01*
X34635Y-29013D01*
X34592Y-29055D01*
X34584Y-29080D01*
X34584Y-29097D01*
X34593Y-29122D01*
X34610Y-29139D01*
X34642Y-29156D01*
X34845Y-29156D01*
X34736Y-29265D01*
X36003Y-29574D02*
X36104Y-29473D01*
X36053Y-29523D02*
X35877Y-29347D01*
X35919Y-29355D01*
X35953Y-29355D01*
X35978Y-29347D01*
X35717Y-29506D02*
X35700Y-29523D01*
X35691Y-29549D01*
X35691Y-29566D01*
X35700Y-29591D01*
X35725Y-29632D01*
X35768Y-29675D01*
X35809Y-29701D01*
X35834Y-29709D01*
X35851Y-29709D01*
X35877Y-29700D01*
X35894Y-29683D01*
X35902Y-29658D01*
X35902Y-29641D01*
X35894Y-29617D01*
X35868Y-29574D01*
X35826Y-29532D01*
X35784Y-29507D01*
X35759Y-29498D01*
X35742Y-29498D01*
X35717Y-29506D01*
X35549Y-29675D02*
X35532Y-29692D01*
X35523Y-29717D01*
X35523Y-29734D01*
X35532Y-29760D01*
X35557Y-29801D01*
X35599Y-29843D01*
X35641Y-29869D01*
X35666Y-29877D01*
X35683Y-29877D01*
X35708Y-29868D01*
X35725Y-29851D01*
X35734Y-29826D01*
X35734Y-29809D01*
X35725Y-29785D01*
X35700Y-29743D01*
X35657Y-29700D01*
X35616Y-29675D01*
X35591Y-29666D01*
X35574Y-29666D01*
X35549Y-29675D01*
X35339Y-30004D02*
X35456Y-30121D01*
X35355Y-30020D02*
X35339Y-30019D01*
X35314Y-30028D01*
X35288Y-30054D01*
X35279Y-30078D01*
X35288Y-30104D01*
X35380Y-30197D01*
X35145Y-30247D02*
X35204Y-30188D01*
X35296Y-30281D02*
X35119Y-30104D01*
X35035Y-30188D01*
X34857Y-24415D02*
X34857Y-24432D01*
X34874Y-24465D01*
X34890Y-24482D01*
X34924Y-24499D01*
X34958Y-24499D01*
X34982Y-24491D01*
X35025Y-24465D01*
X35050Y-24440D01*
X35075Y-24398D01*
X35084Y-24373D01*
X35084Y-24339D01*
X35067Y-24306D01*
X35050Y-24289D01*
X35017Y-24272D01*
X35000Y-24272D01*
X34958Y-24196D02*
X34849Y-24087D01*
X34840Y-24213D01*
X34815Y-24187D01*
X34789Y-24179D01*
X34772Y-24179D01*
X34748Y-24188D01*
X34705Y-24231D01*
X34697Y-24255D01*
X34697Y-24272D01*
X34705Y-24297D01*
X34756Y-24348D01*
X34781Y-24356D01*
X34798Y-24356D01*
X34363Y-25530D02*
X34464Y-25631D01*
X34414Y-25580D02*
X34590Y-25404D01*
X34582Y-25446D01*
X34582Y-25480D01*
X34590Y-25505D01*
X34431Y-25244D02*
X34414Y-25227D01*
X34388Y-25218D01*
X34371Y-25218D01*
X34346Y-25227D01*
X34305Y-25252D01*
X34262Y-25295D01*
X34236Y-25336D01*
X34228Y-25361D01*
X34228Y-25378D01*
X34237Y-25404D01*
X34254Y-25421D01*
X34279Y-25429D01*
X34296Y-25429D01*
X34320Y-25421D01*
X34363Y-25395D01*
X34405Y-25353D01*
X34430Y-25311D01*
X34439Y-25286D01*
X34439Y-25269D01*
X34431Y-25244D01*
X34262Y-25076D02*
X34245Y-25059D01*
X34220Y-25050D01*
X34203Y-25050D01*
X34177Y-25059D01*
X34136Y-25084D01*
X34094Y-25126D01*
X34068Y-25168D01*
X34060Y-25193D01*
X34060Y-25210D01*
X34069Y-25235D01*
X34086Y-25252D01*
X34111Y-25261D01*
X34128Y-25261D01*
X34152Y-25252D01*
X34194Y-25227D01*
X34237Y-25184D01*
X34262Y-25143D01*
X34271Y-25118D01*
X34271Y-25101D01*
X34262Y-25076D01*
X33933Y-24866D02*
X33816Y-24983D01*
X33917Y-24882D02*
X33918Y-24866D01*
X33909Y-24841D01*
X33883Y-24815D01*
X33859Y-24806D01*
X33833Y-24815D01*
X33740Y-24907D01*
X33690Y-24672D02*
X33749Y-24731D01*
X33656Y-24823D02*
X33833Y-24646D01*
X33749Y-24562D01*
X31550Y-29454D02*
X31550Y-29471D01*
X31567Y-29504D01*
X31583Y-29521D01*
X31617Y-29538D01*
X31651Y-29538D01*
X31675Y-29530D01*
X31718Y-29504D01*
X31743Y-29479D01*
X31768Y-29437D01*
X31777Y-29412D01*
X31777Y-29378D01*
X31760Y-29345D01*
X31743Y-29328D01*
X31710Y-29311D01*
X31693Y-29311D01*
X31499Y-29202D02*
X31381Y-29319D01*
X31609Y-29176D02*
X31524Y-29345D01*
X31415Y-29236D01*
X31227Y-30269D02*
X31109Y-30386D01*
X31337Y-30243D02*
X31252Y-30412D01*
X31143Y-30303D01*
X31034Y-30276D02*
X31017Y-30277D01*
X31017Y-30293D01*
X31034Y-30293D01*
X31034Y-30276D01*
X31017Y-30293D01*
X31126Y-30049D02*
X31009Y-29932D01*
X30908Y-30185D01*
X30672Y-29714D02*
X30554Y-29831D01*
X30747Y-29789D02*
X30655Y-29881D01*
X30631Y-29890D01*
X30605Y-29882D01*
X30580Y-29856D01*
X30571Y-29831D01*
X30571Y-29814D01*
X30504Y-29596D02*
X30563Y-29654D01*
X30470Y-29747D02*
X30647Y-29570D01*
X30563Y-29486D01*
X29896Y-29769D02*
X29896Y-29786D01*
X29913Y-29819D01*
X29929Y-29836D01*
X29963Y-29853D01*
X29997Y-29853D01*
X30021Y-29845D01*
X30064Y-29819D01*
X30089Y-29794D01*
X30114Y-29752D01*
X30123Y-29727D01*
X30123Y-29693D01*
X30106Y-29660D01*
X30089Y-29643D01*
X30056Y-29626D01*
X30039Y-29626D01*
X29896Y-29449D02*
X29980Y-29533D01*
X29904Y-29626D01*
X29904Y-29609D01*
X29896Y-29584D01*
X29854Y-29541D01*
X29828Y-29533D01*
X29811Y-29533D01*
X29787Y-29542D01*
X29744Y-29585D01*
X29736Y-29609D01*
X29736Y-29626D01*
X29744Y-29651D01*
X29787Y-29693D01*
X29811Y-29701D01*
X29828Y-29701D01*
X30505Y-31278D02*
X30606Y-31379D01*
X30556Y-31328D02*
X30732Y-31152D01*
X30724Y-31194D01*
X30724Y-31228D01*
X30732Y-31253D01*
X30573Y-30992D02*
X30556Y-30975D01*
X30530Y-30966D01*
X30513Y-30966D01*
X30488Y-30975D01*
X30447Y-31000D01*
X30404Y-31043D01*
X30378Y-31084D01*
X30370Y-31109D01*
X30370Y-31126D01*
X30379Y-31152D01*
X30396Y-31169D01*
X30421Y-31177D01*
X30438Y-31177D01*
X30462Y-31169D01*
X30505Y-31143D01*
X30547Y-31101D01*
X30572Y-31059D01*
X30581Y-31034D01*
X30581Y-31017D01*
X30573Y-30992D01*
X30404Y-30824D02*
X30387Y-30807D01*
X30362Y-30798D01*
X30345Y-30798D01*
X30319Y-30807D01*
X30278Y-30832D01*
X30236Y-30874D01*
X30210Y-30916D01*
X30202Y-30941D01*
X30202Y-30958D01*
X30211Y-30983D01*
X30228Y-31000D01*
X30253Y-31009D01*
X30270Y-31009D01*
X30294Y-31000D01*
X30336Y-30975D01*
X30379Y-30932D01*
X30404Y-30891D01*
X30413Y-30866D01*
X30413Y-30849D01*
X30404Y-30824D01*
X30075Y-30614D02*
X29958Y-30731D01*
X30059Y-30630D02*
X30060Y-30614D01*
X30051Y-30589D01*
X30025Y-30563D01*
X30001Y-30554D01*
X29975Y-30563D01*
X29882Y-30655D01*
X29832Y-30420D02*
X29891Y-30479D01*
X29798Y-30571D02*
X29975Y-30394D01*
X29891Y-30310D01*
X30751Y-31573D02*
X30763Y-31585D01*
X30798Y-31597D01*
X30822Y-31597D01*
X30858Y-31585D01*
X30882Y-31561D01*
X30893Y-31538D01*
X30905Y-31490D01*
X30905Y-31454D01*
X30893Y-31407D01*
X30882Y-31383D01*
X30858Y-31359D01*
X30822Y-31347D01*
X30798Y-31347D01*
X30763Y-31359D01*
X30751Y-31371D01*
X30536Y-31347D02*
X30584Y-31347D01*
X30608Y-31359D01*
X30620Y-31371D01*
X30643Y-31407D01*
X30655Y-31454D01*
X30655Y-31550D01*
X30643Y-31573D01*
X30632Y-31585D01*
X30608Y-31597D01*
X30560Y-31597D01*
X30536Y-31585D01*
X30524Y-31573D01*
X30513Y-31550D01*
X30513Y-31490D01*
X30524Y-31466D01*
X30536Y-31454D01*
X30560Y-31442D01*
X30608Y-31442D01*
X30632Y-31454D01*
X30643Y-31466D01*
X30655Y-31490D01*
X31214Y-32395D02*
X31202Y-32383D01*
X31179Y-32371D01*
X31119Y-32371D01*
X31095Y-32383D01*
X31083Y-32395D01*
X31072Y-32419D01*
X31072Y-32443D01*
X31083Y-32478D01*
X31226Y-32621D01*
X31072Y-32621D01*
X30917Y-32371D02*
X30893Y-32371D01*
X30869Y-32383D01*
X30857Y-32395D01*
X30845Y-32419D01*
X30834Y-32466D01*
X30834Y-32526D01*
X30845Y-32574D01*
X30857Y-32597D01*
X30869Y-32609D01*
X30893Y-32621D01*
X30917Y-32621D01*
X30941Y-32609D01*
X30953Y-32597D01*
X30964Y-32574D01*
X30976Y-32526D01*
X30976Y-32466D01*
X30964Y-32419D01*
X30953Y-32395D01*
X30941Y-32383D01*
X30917Y-32371D01*
X30536Y-32455D02*
X30536Y-32705D01*
X30536Y-32466D02*
X30513Y-32455D01*
X30465Y-32455D01*
X30441Y-32466D01*
X30429Y-32478D01*
X30417Y-32502D01*
X30417Y-32574D01*
X30429Y-32597D01*
X30441Y-32609D01*
X30465Y-32621D01*
X30513Y-32621D01*
X30536Y-32609D01*
X30227Y-32490D02*
X30310Y-32490D01*
X30310Y-32621D02*
X30310Y-32371D01*
X30191Y-32371D01*
X35318Y-31573D02*
X35330Y-31585D01*
X35365Y-31597D01*
X35389Y-31597D01*
X35425Y-31585D01*
X35449Y-31561D01*
X35460Y-31538D01*
X35472Y-31490D01*
X35472Y-31454D01*
X35460Y-31407D01*
X35449Y-31383D01*
X35425Y-31359D01*
X35389Y-31347D01*
X35365Y-31347D01*
X35330Y-31359D01*
X35318Y-31371D01*
X35234Y-31347D02*
X35068Y-31347D01*
X35175Y-31597D01*
X35781Y-32473D02*
X35769Y-32461D01*
X35746Y-32449D01*
X35686Y-32449D01*
X35662Y-32461D01*
X35650Y-32473D01*
X35639Y-32497D01*
X35639Y-32521D01*
X35650Y-32556D01*
X35793Y-32699D01*
X35639Y-32699D01*
X35484Y-32449D02*
X35460Y-32449D01*
X35436Y-32461D01*
X35424Y-32473D01*
X35412Y-32497D01*
X35401Y-32544D01*
X35401Y-32604D01*
X35412Y-32652D01*
X35424Y-32675D01*
X35436Y-32687D01*
X35460Y-32699D01*
X35484Y-32699D01*
X35508Y-32687D01*
X35520Y-32675D01*
X35531Y-32652D01*
X35543Y-32604D01*
X35543Y-32544D01*
X35531Y-32497D01*
X35520Y-32473D01*
X35508Y-32461D01*
X35484Y-32449D01*
X35103Y-32533D02*
X35103Y-32783D01*
X35103Y-32544D02*
X35080Y-32533D01*
X35032Y-32533D01*
X35008Y-32544D01*
X34996Y-32556D01*
X34984Y-32580D01*
X34984Y-32652D01*
X34996Y-32675D01*
X35008Y-32687D01*
X35032Y-32699D01*
X35080Y-32699D01*
X35103Y-32687D01*
X34794Y-32568D02*
X34877Y-32568D01*
X34877Y-32699D02*
X34877Y-32449D01*
X34758Y-32449D01*
X35431Y-33423D02*
X35443Y-33411D01*
X35455Y-33376D01*
X35455Y-33352D01*
X35443Y-33316D01*
X35419Y-33292D01*
X35396Y-33281D01*
X35348Y-33269D01*
X35312Y-33269D01*
X35265Y-33281D01*
X35241Y-33292D01*
X35217Y-33316D01*
X35205Y-33352D01*
X35205Y-33376D01*
X35217Y-33411D01*
X35229Y-33423D01*
X35312Y-33566D02*
X35300Y-33542D01*
X35289Y-33531D01*
X35265Y-33519D01*
X35253Y-33519D01*
X35229Y-33531D01*
X35217Y-33542D01*
X35205Y-33566D01*
X35205Y-33614D01*
X35217Y-33638D01*
X35229Y-33650D01*
X35253Y-33661D01*
X35265Y-33661D01*
X35289Y-33650D01*
X35300Y-33638D01*
X35312Y-33614D01*
X35312Y-33566D01*
X35324Y-33542D01*
X35336Y-33531D01*
X35360Y-33519D01*
X35408Y-33519D01*
X35431Y-33531D01*
X35443Y-33542D01*
X35455Y-33566D01*
X35455Y-33614D01*
X35443Y-33638D01*
X35431Y-33650D01*
X35408Y-33661D01*
X35360Y-33661D01*
X35336Y-33650D01*
X35324Y-33638D01*
X35312Y-33614D01*
X34886Y-33867D02*
X34720Y-33867D01*
X34827Y-34117D01*
X34434Y-33951D02*
X34434Y-34201D01*
X34434Y-33962D02*
X34411Y-33951D01*
X34363Y-33951D01*
X34339Y-33962D01*
X34327Y-33974D01*
X34315Y-33998D01*
X34315Y-34070D01*
X34327Y-34093D01*
X34339Y-34105D01*
X34363Y-34117D01*
X34411Y-34117D01*
X34434Y-34105D01*
X34125Y-33986D02*
X34208Y-33986D01*
X34208Y-34117D02*
X34208Y-33867D01*
X34089Y-33867D01*
X35431Y-34367D02*
X35443Y-34355D01*
X35455Y-34320D01*
X35455Y-34296D01*
X35443Y-34260D01*
X35419Y-34236D01*
X35396Y-34225D01*
X35348Y-34213D01*
X35312Y-34213D01*
X35265Y-34225D01*
X35241Y-34236D01*
X35217Y-34260D01*
X35205Y-34296D01*
X35205Y-34320D01*
X35217Y-34355D01*
X35229Y-34367D01*
X35455Y-34486D02*
X35455Y-34534D01*
X35443Y-34558D01*
X35431Y-34570D01*
X35396Y-34594D01*
X35348Y-34605D01*
X35253Y-34605D01*
X35229Y-34594D01*
X35217Y-34582D01*
X35205Y-34558D01*
X35205Y-34510D01*
X35217Y-34486D01*
X35229Y-34475D01*
X35253Y-34463D01*
X35312Y-34463D01*
X35336Y-34475D01*
X35348Y-34486D01*
X35360Y-34510D01*
X35360Y-34558D01*
X35348Y-34582D01*
X35336Y-34594D01*
X35312Y-34605D01*
X34965Y-34890D02*
X34799Y-34890D01*
X34906Y-35140D01*
X34513Y-34974D02*
X34513Y-35224D01*
X34513Y-34985D02*
X34490Y-34974D01*
X34442Y-34974D01*
X34418Y-34985D01*
X34406Y-34997D01*
X34394Y-35021D01*
X34394Y-35093D01*
X34406Y-35116D01*
X34418Y-35128D01*
X34442Y-35140D01*
X34490Y-35140D01*
X34513Y-35128D01*
X34204Y-35009D02*
X34287Y-35009D01*
X34287Y-35140D02*
X34287Y-34890D01*
X34168Y-34890D01*
X33644Y-30745D02*
X33525Y-30662D01*
X33644Y-30603D02*
X33394Y-30603D01*
X33394Y-30698D01*
X33406Y-30722D01*
X33418Y-30733D01*
X33442Y-30745D01*
X33478Y-30745D01*
X33501Y-30733D01*
X33513Y-30722D01*
X33525Y-30698D01*
X33525Y-30603D01*
X33644Y-30983D02*
X33644Y-30841D01*
X33644Y-30912D02*
X33394Y-30912D01*
X33430Y-30888D01*
X33454Y-30864D01*
X33466Y-30841D01*
X34442Y-30478D02*
X34430Y-30490D01*
X34418Y-30513D01*
X34418Y-30573D01*
X34430Y-30597D01*
X34442Y-30609D01*
X34466Y-30620D01*
X34490Y-30620D01*
X34525Y-30609D01*
X34668Y-30466D01*
X34668Y-30620D01*
X34442Y-30716D02*
X34430Y-30728D01*
X34418Y-30751D01*
X34418Y-30811D01*
X34430Y-30835D01*
X34442Y-30847D01*
X34466Y-30858D01*
X34490Y-30858D01*
X34525Y-30847D01*
X34668Y-30704D01*
X34668Y-30858D01*
X34418Y-31013D02*
X34418Y-31037D01*
X34430Y-31061D01*
X34442Y-31073D01*
X34466Y-31085D01*
X34513Y-31096D01*
X34573Y-31096D01*
X34621Y-31085D01*
X34644Y-31073D01*
X34656Y-31061D01*
X34668Y-31037D01*
X34668Y-31013D01*
X34656Y-30989D01*
X34644Y-30977D01*
X34621Y-30966D01*
X34573Y-30954D01*
X34513Y-30954D01*
X34466Y-30966D01*
X34442Y-30977D01*
X34430Y-30989D01*
X34418Y-31013D01*
M02*
