M48
;DRILL file {Pcbnew (2012-01-19 BZR 3256)-stable} date 2/20/2012 8:09:28 PM
;FORMAT={-:-/ absolute / inch / decimal}
FMAT,2
INCH,TZ
T1C0.016
T2C0.025
T3C0.030
T4C0.032
T5C0.040
%
G90
G05
M72
T1
X3.345Y3.390
X3.345Y3.460
T2
X3.055Y2.633
X3.209Y2.969
X3.261Y2.395
X3.348Y2.972
X3.368Y2.641
X3.390Y2.483
X3.444Y2.546
X3.447Y2.997
X3.504Y2.862
T3
X3.200Y3.200
X3.400Y3.200
T4
X2.900Y2.275
X2.900Y2.375
X2.900Y2.475
X2.900Y2.575
X2.900Y2.675
X2.900Y2.775
X2.900Y2.875
X2.900Y2.975
X2.900Y3.075
X2.900Y3.175
X2.900Y3.275
X2.900Y3.375
X2.900Y3.475
X2.900Y3.575
X2.900Y3.675
X2.900Y3.775
X2.900Y3.875
X2.900Y3.975
X2.900Y4.075
X2.900Y4.175
X3.700Y2.275
X3.700Y2.375
X3.700Y2.475
X3.700Y2.575
X3.700Y2.675
X3.700Y2.775
X3.700Y2.875
X3.700Y2.975
X3.700Y3.075
X3.700Y3.175
X3.700Y3.275
X3.700Y3.375
X3.700Y3.475
X3.700Y3.575
X3.700Y3.675
X3.700Y3.775
X3.700Y3.875
X3.700Y3.975
X3.700Y4.075
X3.700Y4.175
T5
X3.150Y3.650
X3.250Y3.650
X3.350Y3.650
X3.450Y3.650
T0
M30
