G04 Layer_Color=128*
%FSLAX44Y44*%
%MOMM*%
G71*
G01*
G75*
%ADD25C,0.1500*%
%ADD30C,0.0508*%
D25*
X0Y580000D02*
X395000D01*
Y0D02*
Y580000D01*
X0Y0D02*
X395000D01*
X0D02*
Y330000D01*
X27500D01*
Y425000D01*
X0D02*
X27500D01*
X0D02*
Y580000D01*
D30*
X285700Y255700D02*
X308700D01*
X297200Y244200D02*
Y267200D01*
X285700Y124300D02*
X308700D01*
X297200Y112800D02*
Y135800D01*
X265500Y155000D02*
X274700D01*
X270100Y150400D02*
Y159600D01*
X265500Y180000D02*
X274700D01*
X270100Y175400D02*
Y184600D01*
X265500Y225000D02*
X274700D01*
X270100Y220400D02*
Y229600D01*
X265500Y200000D02*
X274700D01*
X270100Y195400D02*
Y204600D01*
X72500Y132500D02*
X82500D01*
X77500Y127500D02*
Y137500D01*
X27500Y132500D02*
X37500D01*
X32500Y127500D02*
Y137500D01*
X27500Y197500D02*
X37500D01*
X32500Y192500D02*
Y202500D01*
X72500Y197500D02*
X82500D01*
X77500Y192500D02*
Y202500D01*
X127500Y197500D02*
X137500D01*
X132500Y192500D02*
Y202500D01*
X172500Y197500D02*
X182500D01*
X177500Y192500D02*
Y202500D01*
X172500Y132500D02*
X182500D01*
X177500Y127500D02*
Y137500D01*
X127500Y132500D02*
X137500D01*
X132500Y127500D02*
Y137500D01*
X72500Y22500D02*
X82500D01*
X77500Y17500D02*
Y27500D01*
X27500Y22500D02*
X37500D01*
X32500Y17500D02*
Y27500D01*
X27500Y87500D02*
X37500D01*
X32500Y82500D02*
Y92500D01*
X72500Y87500D02*
X82500D01*
X77500Y82500D02*
Y92500D01*
X127500Y87500D02*
X137500D01*
X132500Y82500D02*
Y92500D01*
X172500Y87500D02*
X182500D01*
X177500Y82500D02*
Y92500D01*
X172500Y22500D02*
X182500D01*
X177500Y17500D02*
Y27500D01*
X127500Y22500D02*
X137500D01*
X132500Y17500D02*
Y27500D01*
X16000Y285000D02*
X24000D01*
X20000Y281000D02*
Y289000D01*
X208500Y240000D02*
X216500D01*
X212500Y236000D02*
Y244000D01*
X208500Y260000D02*
X216500D01*
X212500Y256000D02*
Y264000D01*
X291000Y480000D02*
X299000D01*
X295000Y476000D02*
Y484000D01*
X238500Y260000D02*
X246500D01*
X242500Y256000D02*
Y264000D01*
X238500Y240000D02*
X246500D01*
X242500Y236000D02*
Y244000D01*
X6000Y267500D02*
X14000D01*
X10000Y263500D02*
Y271500D01*
M02*
