G04 Layer_Physical_Order=2*
G04 Layer_Color=52234*
%FSLAX44Y44*%
%MOMM*%
G71*
G01*
G75*
%ADD10R,0.8000X0.9000*%
%ADD21C,0.5000*%
%ADD25C,0.1500*%
%ADD26C,3.8000*%
%ADD27R,1.6000X1.6000*%
%ADD28C,1.6000*%
%ADD29C,1.2700*%
G36*
X392500Y2500D02*
X2500D01*
Y327500D01*
X30000D01*
Y427500D01*
X2500D01*
Y577500D01*
X392500D01*
Y2500D01*
D02*
G37*
%LPC*%
G36*
X305000Y492598D02*
X250000D01*
X248049Y492210D01*
X246395Y491105D01*
X226395Y471105D01*
X225290Y469451D01*
X224902Y467500D01*
Y237500D01*
X225110Y236453D01*
X223940Y235827D01*
X221269Y238498D01*
X221467Y240000D01*
X221161Y242321D01*
X220265Y244483D01*
X218840Y246340D01*
X216983Y247765D01*
X214821Y248661D01*
X212500Y248967D01*
X210179Y248661D01*
X208017Y247765D01*
X206160Y246340D01*
X204735Y244483D01*
X203839Y242321D01*
X203533Y240000D01*
X203839Y237679D01*
X204735Y235517D01*
X206160Y233660D01*
X208017Y232235D01*
X210179Y231339D01*
X212500Y231033D01*
X214002Y231231D01*
X248866Y196366D01*
X250534Y195252D01*
X252500Y194861D01*
X258158D01*
X258745Y193444D01*
X260828Y190728D01*
X260950Y190635D01*
Y189365D01*
X260828Y189272D01*
X258745Y186556D01*
X258158Y185139D01*
X249629D01*
X195239Y239529D01*
Y252971D01*
X197129Y254861D01*
X205238D01*
X206160Y253660D01*
X208017Y252235D01*
X210179Y251339D01*
X212500Y251033D01*
X214821Y251339D01*
X216983Y252235D01*
X218840Y253660D01*
X220265Y255517D01*
X221161Y257679D01*
X221467Y260000D01*
X221161Y262321D01*
X220265Y264483D01*
X218840Y266340D01*
X216983Y267765D01*
X214821Y268661D01*
X212500Y268967D01*
X210179Y268661D01*
X208017Y267765D01*
X206160Y266340D01*
X205238Y265139D01*
X195000D01*
X195000Y265139D01*
X193034Y264748D01*
X191366Y263634D01*
X186466Y258734D01*
X185352Y257066D01*
X184961Y255100D01*
Y237400D01*
X185352Y235434D01*
X186466Y233766D01*
X243866Y176366D01*
X245534Y175252D01*
X247500Y174861D01*
X258158D01*
X258745Y173444D01*
X260828Y170728D01*
X262729Y169270D01*
X262298Y168000D01*
X257100D01*
Y160139D01*
X255100D01*
X253134Y159748D01*
X251466Y158634D01*
X242971Y150139D01*
X231000D01*
Y154500D01*
X213139D01*
Y158000D01*
X217000D01*
Y177000D01*
X213139D01*
Y197000D01*
X212748Y198967D01*
X211634Y200634D01*
X186134Y226134D01*
X184466Y227248D01*
X182500Y227639D01*
X84628D01*
X28769Y283498D01*
X28967Y285000D01*
X28661Y287321D01*
X27765Y289483D01*
X26340Y291340D01*
X24483Y292765D01*
X22321Y293661D01*
X20000Y293967D01*
X17679Y293661D01*
X15517Y292765D01*
X13660Y291340D01*
X12235Y289483D01*
X11339Y287321D01*
X11033Y285000D01*
X11339Y282679D01*
X12235Y280517D01*
X13660Y278660D01*
X15517Y277235D01*
X17679Y276339D01*
X20000Y276033D01*
X21502Y276231D01*
X78866Y218866D01*
X80534Y217752D01*
X82500Y217361D01*
X180371D01*
X202861Y194872D01*
Y177000D01*
X199000D01*
Y158000D01*
X202861D01*
Y154500D01*
X199000D01*
Y135500D01*
X231000D01*
Y139861D01*
X245100D01*
X247066Y140252D01*
X248734Y141366D01*
X255927Y148559D01*
X257100Y148073D01*
Y142000D01*
X283100D01*
Y168000D01*
X277902D01*
X277471Y169270D01*
X279372Y170728D01*
X281455Y173444D01*
X282765Y176606D01*
X283212Y180000D01*
X282765Y183394D01*
X281455Y186556D01*
X279372Y189272D01*
X279250Y189365D01*
Y190635D01*
X279372Y190728D01*
X281455Y193444D01*
X282765Y196606D01*
X283212Y200000D01*
X282765Y203394D01*
X281455Y206556D01*
X279372Y209272D01*
X276656Y211355D01*
X273494Y212665D01*
X270100Y213112D01*
X266706Y212665D01*
X263544Y211355D01*
X260828Y209272D01*
X258745Y206556D01*
X258158Y205139D01*
X254629D01*
X235827Y223940D01*
X236453Y225110D01*
X237500Y224902D01*
X247500D01*
X249451Y225290D01*
X251105Y226395D01*
X258605Y233895D01*
X259710Y235549D01*
X260098Y237500D01*
Y271675D01*
X308228Y311054D01*
X308391Y311253D01*
X308605Y311395D01*
X309019Y312015D01*
X309492Y312590D01*
X309567Y312836D01*
X309710Y313049D01*
X309855Y313780D01*
X310073Y314493D01*
X310048Y314748D01*
X310098Y315000D01*
Y487500D01*
X309710Y489451D01*
X308605Y491105D01*
X306951Y492210D01*
X305000Y492598D01*
D02*
G37*
G36*
X177500Y210612D02*
X174106Y210165D01*
X170944Y208855D01*
X168228Y206772D01*
X166145Y204056D01*
X164835Y200894D01*
X164388Y197500D01*
X164835Y194106D01*
X166145Y190944D01*
X168228Y188228D01*
X170944Y186145D01*
X174106Y184835D01*
X177500Y184388D01*
X180894Y184835D01*
X184056Y186145D01*
X186772Y188228D01*
X188855Y190944D01*
X190165Y194106D01*
X190612Y197500D01*
X190165Y200894D01*
X188855Y204056D01*
X186772Y206772D01*
X184056Y208855D01*
X180894Y210165D01*
X177500Y210612D01*
D02*
G37*
G36*
X77500D02*
X74106Y210165D01*
X70944Y208855D01*
X68228Y206772D01*
X66144Y204056D01*
X64835Y200894D01*
X64388Y197500D01*
X64835Y194106D01*
X66144Y190944D01*
X68228Y188228D01*
X70944Y186145D01*
X74106Y184835D01*
X77500Y184388D01*
X80894Y184835D01*
X84056Y186145D01*
X86772Y188228D01*
X88855Y190944D01*
X90165Y194106D01*
X90612Y197500D01*
X90165Y200894D01*
X88855Y204056D01*
X86772Y206772D01*
X84056Y208855D01*
X80894Y210165D01*
X77500Y210612D01*
D02*
G37*
G36*
X32500D02*
X29106Y210165D01*
X25944Y208855D01*
X23228Y206772D01*
X21144Y204056D01*
X19835Y200894D01*
X19388Y197500D01*
X19835Y194106D01*
X21144Y190944D01*
X23228Y188228D01*
X25944Y186145D01*
X29106Y184835D01*
X32500Y184388D01*
X35894Y184835D01*
X39056Y186145D01*
X41772Y188228D01*
X43855Y190944D01*
X45165Y194106D01*
X45612Y197500D01*
X45165Y200894D01*
X43855Y204056D01*
X41772Y206772D01*
X39056Y208855D01*
X35894Y210165D01*
X32500Y210612D01*
D02*
G37*
G36*
X177500Y145612D02*
X174106Y145165D01*
X170944Y143855D01*
X168228Y141772D01*
X166145Y139056D01*
X164835Y135894D01*
X164388Y132500D01*
X164835Y129106D01*
X166145Y125944D01*
X168228Y123228D01*
X170944Y121145D01*
X174106Y119835D01*
X177500Y119388D01*
X180894Y119835D01*
X184056Y121145D01*
X186772Y123228D01*
X188855Y125944D01*
X190165Y129106D01*
X190612Y132500D01*
X190165Y135894D01*
X188855Y139056D01*
X186772Y141772D01*
X184056Y143855D01*
X180894Y145165D01*
X177500Y145612D01*
D02*
G37*
G36*
X132500D02*
X129106Y145165D01*
X125944Y143855D01*
X123228Y141772D01*
X121145Y139056D01*
X119835Y135894D01*
X119388Y132500D01*
X119835Y129106D01*
X121145Y125944D01*
X123228Y123228D01*
X125944Y121145D01*
X129106Y119835D01*
X132500Y119388D01*
X135894Y119835D01*
X139056Y121145D01*
X141772Y123228D01*
X143855Y125944D01*
X145165Y129106D01*
X145612Y132500D01*
X145165Y135894D01*
X143855Y139056D01*
X141772Y141772D01*
X139056Y143855D01*
X135894Y145165D01*
X132500Y145612D01*
D02*
G37*
G36*
X32500D02*
X29106Y145165D01*
X25944Y143855D01*
X23228Y141772D01*
X21144Y139056D01*
X19835Y135894D01*
X19388Y132500D01*
X19835Y129106D01*
X21144Y125944D01*
X23228Y123228D01*
X25944Y121145D01*
X29106Y119835D01*
X32500Y119388D01*
X35894Y119835D01*
X39056Y121145D01*
X41772Y123228D01*
X43855Y125944D01*
X45165Y129106D01*
X45612Y132500D01*
X45165Y135894D01*
X43855Y139056D01*
X41772Y141772D01*
X39056Y143855D01*
X35894Y145165D01*
X32500Y145612D01*
D02*
G37*
G36*
X177500Y100612D02*
X174106Y100165D01*
X170944Y98855D01*
X168228Y96772D01*
X166145Y94056D01*
X164835Y90894D01*
X164388Y87500D01*
X164835Y84106D01*
X166145Y80944D01*
X168228Y78228D01*
X170944Y76145D01*
X174106Y74835D01*
X177500Y74388D01*
X180894Y74835D01*
X184056Y76145D01*
X186772Y78228D01*
X188855Y80944D01*
X190165Y84106D01*
X190612Y87500D01*
X190165Y90894D01*
X188855Y94056D01*
X186772Y96772D01*
X184056Y98855D01*
X180894Y100165D01*
X177500Y100612D01*
D02*
G37*
G36*
X77500D02*
X74106Y100165D01*
X70944Y98855D01*
X68228Y96772D01*
X66144Y94056D01*
X64835Y90894D01*
X64388Y87500D01*
X64835Y84106D01*
X66144Y80944D01*
X68228Y78228D01*
X70944Y76145D01*
X74106Y74835D01*
X77500Y74388D01*
X80894Y74835D01*
X84056Y76145D01*
X86772Y78228D01*
X88855Y80944D01*
X90165Y84106D01*
X90612Y87500D01*
X90165Y90894D01*
X88855Y94056D01*
X86772Y96772D01*
X84056Y98855D01*
X80894Y100165D01*
X77500Y100612D01*
D02*
G37*
G36*
X32500D02*
X29106Y100165D01*
X25944Y98855D01*
X23228Y96772D01*
X21144Y94056D01*
X19835Y90894D01*
X19388Y87500D01*
X19835Y84106D01*
X21144Y80944D01*
X23228Y78228D01*
X25944Y76145D01*
X29106Y74835D01*
X32500Y74388D01*
X35894Y74835D01*
X39056Y76145D01*
X41772Y78228D01*
X43855Y80944D01*
X45165Y84106D01*
X45612Y87500D01*
X45165Y90894D01*
X43855Y94056D01*
X41772Y96772D01*
X39056Y98855D01*
X35894Y100165D01*
X32500Y100612D01*
D02*
G37*
G36*
X177500Y35612D02*
X174106Y35165D01*
X170944Y33855D01*
X168228Y31772D01*
X166145Y29056D01*
X164835Y25894D01*
X164388Y22500D01*
X164835Y19106D01*
X166145Y15944D01*
X168228Y13228D01*
X170944Y11144D01*
X174106Y9835D01*
X177500Y9388D01*
X180894Y9835D01*
X184056Y11144D01*
X186772Y13228D01*
X188855Y15944D01*
X190165Y19106D01*
X190612Y22500D01*
X190165Y25894D01*
X188855Y29056D01*
X186772Y31772D01*
X184056Y33855D01*
X180894Y35165D01*
X177500Y35612D01*
D02*
G37*
G36*
X132500D02*
X129106Y35165D01*
X125944Y33855D01*
X123228Y31772D01*
X121145Y29056D01*
X119835Y25894D01*
X119388Y22500D01*
X119835Y19106D01*
X121145Y15944D01*
X123228Y13228D01*
X125944Y11144D01*
X129106Y9835D01*
X132500Y9388D01*
X135894Y9835D01*
X139056Y11144D01*
X141772Y13228D01*
X143855Y15944D01*
X145165Y19106D01*
X145612Y22500D01*
X145165Y25894D01*
X143855Y29056D01*
X141772Y31772D01*
X139056Y33855D01*
X135894Y35165D01*
X132500Y35612D01*
D02*
G37*
G36*
X32500D02*
X29106Y35165D01*
X25944Y33855D01*
X23228Y31772D01*
X21144Y29056D01*
X19835Y25894D01*
X19388Y22500D01*
X19835Y19106D01*
X21144Y15944D01*
X23228Y13228D01*
X25944Y11144D01*
X29106Y9835D01*
X32500Y9388D01*
X35894Y9835D01*
X39056Y11144D01*
X41772Y13228D01*
X43855Y15944D01*
X45165Y19106D01*
X45612Y22500D01*
X45165Y25894D01*
X43855Y29056D01*
X41772Y31772D01*
X39056Y33855D01*
X35894Y35165D01*
X32500Y35612D01*
D02*
G37*
%LPD*%
G36*
X305000Y315000D02*
X255000Y274091D01*
Y237500D01*
X247500Y230000D01*
X237500D01*
X230000Y237500D01*
Y467500D01*
X250000Y487500D01*
X305000D01*
Y315000D01*
D02*
G37*
D10*
X208000Y167500D02*
D03*
X222000D02*
D03*
X208000Y145000D02*
D03*
X222000D02*
D03*
D21*
X252500Y200000D02*
X270100D01*
X222000Y145000D02*
X245100D01*
X255100Y155000D01*
X208000Y145000D02*
Y167500D01*
X20000Y285000D02*
Y285000D01*
X212500Y240000D02*
X252500Y200000D01*
X190100Y255100D02*
X195000Y260000D01*
X20000Y285000D02*
X82500Y222500D01*
X182500D01*
X208000Y197000D01*
Y167500D02*
Y197000D01*
X190100Y237400D02*
Y255100D01*
Y237400D02*
X247500Y180000D01*
X270100D01*
X255100Y155000D02*
X270100D01*
X195000Y260000D02*
X195000Y260000D01*
X212500D01*
D25*
X0Y580000D02*
X395000D01*
Y0D02*
Y580000D01*
X0Y0D02*
X395000D01*
X0D02*
Y330000D01*
X27500D01*
Y425000D01*
X0D02*
X27500D01*
X0D02*
Y580000D01*
D26*
X297200Y255700D02*
D03*
Y124300D02*
D03*
D27*
X270100Y155000D02*
D03*
D28*
Y180000D02*
D03*
X270100Y225000D02*
D03*
X270100Y200000D02*
D03*
X77500Y132500D02*
D03*
X32500D02*
D03*
Y197500D02*
D03*
X77500D02*
D03*
X132500D02*
D03*
X177500D02*
D03*
Y132500D02*
D03*
X132500D02*
D03*
X77500Y22500D02*
D03*
X32500D02*
D03*
Y87500D02*
D03*
X77500D02*
D03*
X132500D02*
D03*
X177500D02*
D03*
Y22500D02*
D03*
X132500D02*
D03*
D29*
X20000Y285000D02*
D03*
X212500Y240000D02*
D03*
Y260000D02*
D03*
X295000Y480000D02*
D03*
X242500Y260000D02*
D03*
Y240000D02*
D03*
X10000Y267500D02*
D03*
M02*
