M48
;Layer_Color=9474304
;FILE_FORMAT=4:4
METRIC,LZ
;TYPE=PLATED
T1F00S00C0.8000
T2F00S00C0.9200
T3F00S00C1.0000
T4F00S00C2.3000
%
T01
X002125Y0024
Y0026
X002425
Y0024
X00295Y0048
X0002Y00285
X0001Y002675
T02
X002701Y00155
Y0018
Y002
X002701Y00225
T03
X000325Y000225
X000775
X001325
Y000875
Y001325
X000775
Y000875
X000325
Y001325
X001775
Y000875
Y000225
Y001975
X001325
X000775
X000325
T04
X002972Y001243
Y002557
M30
