G04 Layer_Physical_Order=1*
G04 Layer_Color=2232046*
%FSLAX44Y44*%
%MOMM*%
G71*
G01*
G75*
%ADD10R,0.8000X0.9000*%
%ADD11R,0.6000X1.6000*%
%ADD12R,1.6000X0.6000*%
%ADD13O,1.0000X0.8000*%
%ADD14R,1.4000X0.4500*%
%ADD15R,1.5000X3.0000*%
%ADD16R,1.6000X3.0000*%
%ADD17O,1.0000X1.4000*%
%ADD18R,0.9000X0.8000*%
%ADD19R,1.0000X1.4000*%
%ADD20R,3.0000X3.0000*%
%ADD21C,0.5000*%
%ADD22C,0.3810*%
%ADD23C,0.2540*%
%ADD24R,1.0000X1.0000*%
%ADD25C,0.1500*%
%ADD26C,3.8000*%
%ADD27R,1.6000X1.6000*%
%ADD28C,1.6000*%
%ADD29C,1.2700*%
G36*
X12000Y432000D02*
X64000D01*
Y432500D01*
X72000D01*
Y432000D01*
X207500D01*
Y427500D01*
X207000D01*
Y411500D01*
Y399500D01*
Y387500D01*
Y375500D01*
Y363500D01*
Y351500D01*
Y339500D01*
Y327500D01*
X207500D01*
Y323000D01*
X12000D01*
Y307500D01*
X2500D01*
Y327500D01*
X30000D01*
Y340000D01*
Y427500D01*
X2500D01*
Y450000D01*
X12000D01*
Y432000D01*
D02*
G37*
G36*
X392460Y557500D02*
X392460Y113409D01*
X391551Y112522D01*
X290000Y115000D01*
Y210000D01*
Y312500D01*
X320615D01*
Y307000D01*
X315500D01*
Y288000D01*
X333500D01*
Y307000D01*
X328385D01*
Y312500D01*
X370000D01*
Y313615D01*
X375000D01*
X376487Y313911D01*
X377747Y314753D01*
X380994Y318000D01*
X388500D01*
Y337000D01*
X378656D01*
X378429Y338270D01*
X379437Y338943D01*
X380994Y340500D01*
X388500D01*
Y359500D01*
X375152D01*
X374500Y360500D01*
Y379500D01*
X370000D01*
Y457500D01*
X305000D01*
Y535000D01*
Y575000D01*
X265000D01*
Y557500D01*
X215000D01*
Y575000D01*
X175000D01*
Y557500D01*
X125000D01*
Y575000D01*
X85000D01*
Y557500D01*
X40000D01*
Y575000D01*
X2460D01*
Y580000D01*
X392460D01*
X392460Y557500D01*
D02*
G37*
G36*
X282500Y312000D02*
X280500D01*
Y283000D01*
X280500Y283000D01*
X280500D01*
X279651Y282151D01*
X252500Y255000D01*
Y228988D01*
X252360Y228529D01*
X252013Y225000D01*
X252360Y221471D01*
X252500Y221012D01*
Y203989D01*
X252360Y203529D01*
X252013Y200000D01*
X252360Y196471D01*
X252500Y196011D01*
Y183989D01*
X252360Y183529D01*
X252013Y180000D01*
X252360Y176471D01*
X252500Y176011D01*
Y173000D01*
X252100D01*
Y137000D01*
X252500D01*
X252500Y100833D01*
X266429Y90000D01*
X392500D01*
Y2500D01*
X270000D01*
Y52500D01*
X265000Y57500D01*
X255000Y67500D01*
X235000D01*
Y270000D01*
X262500Y297500D01*
Y322348D01*
X263500Y323000D01*
X282500D01*
Y312000D01*
D02*
G37*
D10*
X232000Y495000D02*
D03*
X218000D02*
D03*
X232000Y475000D02*
D03*
X218000D02*
D03*
X234500Y77500D02*
D03*
X220500D02*
D03*
X324500Y297500D02*
D03*
X310500D02*
D03*
X294500Y297500D02*
D03*
X280500D02*
D03*
X365500Y370000D02*
D03*
X379500D02*
D03*
X379500Y327500D02*
D03*
X365500D02*
D03*
X379500Y350000D02*
D03*
X365500D02*
D03*
D11*
X8000Y445000D02*
D03*
X20000D02*
D03*
X32000D02*
D03*
X44000D02*
D03*
X56000D02*
D03*
X68000D02*
D03*
X92000D02*
D03*
X104000D02*
D03*
X116000D02*
D03*
X128000D02*
D03*
X140000D02*
D03*
X152000D02*
D03*
X164000D02*
D03*
X176000D02*
D03*
X188000D02*
D03*
X200000D02*
D03*
X8000Y310000D02*
D03*
X20000D02*
D03*
X32000D02*
D03*
X44000D02*
D03*
X56000D02*
D03*
X68000D02*
D03*
X80000D02*
D03*
X92000D02*
D03*
X104000D02*
D03*
X116000D02*
D03*
X128000D02*
D03*
X140000D02*
D03*
X152000D02*
D03*
X164000D02*
D03*
X176000D02*
D03*
X188000D02*
D03*
X200000D02*
D03*
X80000Y445000D02*
D03*
D12*
X220000Y318500D02*
D03*
Y335500D02*
D03*
Y347500D02*
D03*
Y359500D02*
D03*
Y371500D02*
D03*
Y383500D02*
D03*
Y395500D02*
D03*
Y407500D02*
D03*
Y419500D02*
D03*
Y436500D02*
D03*
D13*
X13000Y412500D02*
D03*
Y398500D02*
D03*
Y384500D02*
D03*
Y370500D02*
D03*
Y356500D02*
D03*
Y342500D02*
D03*
D14*
X280500Y367750D02*
D03*
Y361250D02*
D03*
Y354750D02*
D03*
Y348250D02*
D03*
Y341750D02*
D03*
Y335250D02*
D03*
Y328750D02*
D03*
Y322250D02*
D03*
X339500Y367750D02*
D03*
Y361250D02*
D03*
Y354750D02*
D03*
Y348250D02*
D03*
Y341750D02*
D03*
Y335250D02*
D03*
Y328750D02*
D03*
Y322250D02*
D03*
D15*
X247500Y30000D02*
D03*
X222500D02*
D03*
X332500Y427500D02*
D03*
X357500D02*
D03*
D16*
X345000Y32500D02*
D03*
X360000Y557500D02*
D03*
X382500Y427500D02*
D03*
D17*
X282500Y404000D02*
D03*
Y426000D02*
D03*
D18*
X247500Y427000D02*
D03*
Y413000D02*
D03*
D19*
X275750Y455000D02*
D03*
X294250D02*
D03*
X275750Y505000D02*
D03*
X294250D02*
D03*
D20*
X285000Y555000D02*
D03*
X195000D02*
D03*
X105000D02*
D03*
X20000D02*
D03*
D21*
X32500Y132500D02*
X55000Y155000D01*
X10000Y45000D02*
X32500Y22500D01*
X67500Y309500D02*
X68000Y310000D01*
X55000Y155000D02*
Y227500D01*
X80000Y252500D01*
Y310000D01*
X10000Y45000D02*
Y225000D01*
X67500Y282500D01*
Y309500D01*
X177500Y197500D02*
Y215000D01*
X104000Y288500D02*
X177500Y215000D01*
X104000Y288500D02*
Y310000D01*
X177500Y87500D02*
X195000Y105000D01*
Y210000D01*
X128000Y289500D02*
Y310000D01*
X152000Y300500D02*
Y310000D01*
X140000Y297500D02*
Y310000D01*
X207500Y90500D02*
X220500Y77500D01*
X207500Y90500D02*
Y210000D01*
X128000Y289500D02*
X207500Y210000D01*
X20000Y285000D02*
Y310000D01*
X20000Y310000D02*
X20000Y310000D01*
X140000Y297500D02*
X197500Y240000D01*
X152000Y300500D02*
X192500Y260000D01*
X197500Y240000D02*
X212500D01*
X220000Y359500D02*
X239500D01*
X282500Y402500D01*
Y406000D01*
X20000Y445000D02*
Y532500D01*
X44000Y445000D02*
Y461500D01*
X97500Y515000D01*
X252500Y522500D02*
X285000Y555000D01*
X32000Y445000D02*
Y482000D01*
X105000Y555000D01*
X97500Y515000D02*
X155000D01*
X195000Y555000D01*
X56000Y445000D02*
Y453500D01*
X95000Y492500D01*
X20000Y532500D02*
X20000Y532500D01*
Y555000D01*
X192500Y260000D02*
X192500Y260000D01*
X212500D01*
X220500Y32000D02*
Y77500D01*
Y32000D02*
X222500Y30000D01*
X295000Y480000D02*
Y504250D01*
X294250Y505000D02*
X295000Y504250D01*
Y455750D02*
Y480000D01*
X294250Y455000D02*
X295000Y455750D01*
X294250Y437750D02*
Y455000D01*
X282500Y426000D02*
X294250Y437750D01*
X271000Y426000D02*
X282500D01*
X258000Y413000D02*
X271000Y426000D01*
X247500Y413000D02*
X258000D01*
X247500Y385000D02*
Y413000D01*
X234000Y371500D02*
X247500Y385000D01*
X220000Y371500D02*
X234000D01*
X7500Y270000D02*
X10000Y267500D01*
X7500Y270000D02*
Y309500D01*
X116000Y289000D02*
X195000Y210000D01*
X116000Y289000D02*
Y310000D01*
X95000Y492500D02*
X150000D01*
X180000Y522500D01*
X252500D01*
D22*
X198010Y275510D02*
X199870Y273650D01*
X188000Y285520D02*
X198010Y275510D01*
X225130Y273650D02*
X226990Y275510D01*
X188000Y285520D02*
Y310000D01*
X226990Y275510D02*
X226990D01*
X198010D02*
X198010D01*
X226990D02*
X246990Y295510D01*
Y295510D01*
X263600Y354750D02*
X280500D01*
X242500Y347500D02*
X262961Y367961D01*
X279047D01*
X200000Y287500D02*
Y310000D01*
Y287500D02*
X205000Y282500D01*
X222500D01*
X242500Y302500D01*
Y347500D01*
X246990Y295510D02*
X250000Y298520D01*
Y341150D01*
X263600Y354750D01*
X140000Y445000D02*
Y467500D01*
X167500Y495000D01*
X218000D01*
X218000Y495000D01*
X152000Y445000D02*
Y454500D01*
X172500Y475000D01*
X218000D01*
X232000Y495000D02*
X265750D01*
X275750Y505000D01*
X232000Y475000D02*
X255750D01*
X275750Y455000D01*
X199870Y273650D02*
X225130D01*
D23*
X280500Y341750D02*
X299250D01*
X312500Y355000D01*
Y385000D01*
X332500Y405000D01*
Y427500D01*
X339500Y367750D02*
Y384500D01*
X357500Y402500D01*
Y427500D01*
X358620Y370000D02*
X365500D01*
X349870Y361250D02*
X358620Y370000D01*
X339500Y361250D02*
X349870D01*
X357500Y350000D02*
X365500D01*
X352500Y355000D02*
X357500Y350000D01*
X339750Y355000D02*
X352500D01*
X339500Y354750D02*
X339750Y355000D01*
X339940Y347810D02*
X350310D01*
X339500Y348250D02*
X339940Y347810D01*
X363436Y327500D02*
X365500D01*
X349186Y341750D02*
X363436Y327500D01*
X339500Y341750D02*
X349186D01*
X379500Y322000D02*
Y327500D01*
X375000Y317500D02*
X379500Y322000D01*
X360000Y317500D02*
X375000D01*
X349190Y328310D02*
X360000Y317500D01*
X339940Y328310D02*
X349190D01*
X339500Y328750D02*
X339940Y328310D01*
X350310Y347810D02*
X356430Y341690D01*
X376690D01*
X379500Y344500D01*
Y350000D01*
X324500Y297500D02*
Y332000D01*
X327750Y335250D01*
X339500D01*
X280500D02*
X292250D01*
X302500Y325000D01*
Y310000D02*
Y325000D01*
X211500Y318500D02*
X220000D01*
X205000Y325000D02*
X211500Y318500D01*
X214000Y436500D02*
X220000D01*
X205000Y427500D02*
X214000Y436500D01*
X220000D02*
X238000D01*
X247500Y427000D01*
X68000Y432000D02*
Y445000D01*
Y432000D02*
X70000Y430000D01*
X339500Y308500D02*
Y322250D01*
Y308500D02*
X341000Y307000D01*
X268250Y348250D02*
X280500D01*
X265000Y345000D02*
X268250Y348250D01*
X265000Y337500D02*
Y345000D01*
Y337500D02*
X267500Y335000D01*
X280250D01*
X280500Y335250D01*
D24*
X282500Y408000D02*
D03*
Y422000D02*
D03*
D25*
X0Y580000D02*
X395000D01*
Y0D02*
Y580000D01*
X0Y0D02*
X395000D01*
X0D02*
Y330000D01*
X27500D01*
Y425000D01*
X0D02*
X27500D01*
X0D02*
Y580000D01*
D26*
X297200Y255700D02*
D03*
Y124300D02*
D03*
D27*
X270100Y155000D02*
D03*
D28*
Y180000D02*
D03*
X270100Y225000D02*
D03*
X270100Y200000D02*
D03*
X77500Y132500D02*
D03*
X32500D02*
D03*
Y197500D02*
D03*
X77500D02*
D03*
X132500D02*
D03*
X177500D02*
D03*
Y132500D02*
D03*
X132500D02*
D03*
X77500Y22500D02*
D03*
X32500D02*
D03*
Y87500D02*
D03*
X77500D02*
D03*
X132500D02*
D03*
X177500D02*
D03*
Y22500D02*
D03*
X132500D02*
D03*
D29*
X20000Y285000D02*
D03*
X212500Y240000D02*
D03*
Y260000D02*
D03*
X295000Y480000D02*
D03*
X242500Y260000D02*
D03*
Y240000D02*
D03*
X10000Y267500D02*
D03*
M02*
