%FSLAX23Y23*%
%MOIN*%
%SFA1B1*%

%IPPOS*%
%ADD11C,0.015000*%
%ADD23C,0.005000*%
%LNarmplatform-1*%
%LPD*%
G54D11*
X639Y380D02*
Y2430D01*
X1589Y380D02*
X639D01*
X1589Y2430D02*
Y380D01*
X639Y2430D02*
X1589D01*
G54D23*
X794Y2044D02*
X794Y2043D01*
X793Y2042*
X793Y2041*
X792Y2040*
X792Y2040*
X791Y2039*
X790Y2039*
X789Y2039*
X788*
X787Y2039*
X786Y2040*
X785Y2040*
X785Y2041*
X784Y2042*
X784Y2043*
X784Y2044*
Y2045*
X784Y2046*
X785Y2047*
X785Y2047*
X786Y2048*
X787Y2048*
X788Y2049*
X789Y2049*
X790*
X791Y2048*
X791Y2048*
X792Y2047*
X793Y2047*
X793Y2046*
X794Y2045*
X794Y2044*
X794Y2044*
X821Y2076D02*
X792Y2047D01*
X835Y2005D01*
X863Y2033D01*
X891Y2061D02*
X920Y2090D01*
X877Y2132D01*
X849Y2104D01*
X1403Y1711D02*
X1403Y1710D01*
X1403Y1709*
X1403Y1709*
X1402Y1708*
X1401Y1707*
X1400Y1707*
X1399Y1706*
X1398Y1706*
X1398*
X1397Y1707*
X1396Y1707*
X1395Y1708*
X1394Y1708*
X1394Y1709*
X1394Y1710*
X1394Y1711*
Y1712*
X1394Y1713*
X1394Y1714*
X1395Y1715*
X1396Y1715*
X1396Y1716*
X1397Y1716*
X1398Y1716*
X1399*
X1400Y1716*
X1401Y1715*
X1402Y1715*
X1402Y1714*
X1403Y1713*
X1403Y1712*
X1403Y1711*
X1403Y1711*
X1367Y1679D02*
X1395Y1708D01*
X1352Y1750D01*
X1324Y1722D01*
X1296Y1694D02*
X1268Y1665D01*
X1310Y1623D01*
X1338Y1651D01*
X1244Y2223D02*
X1244Y2222D01*
X1243Y2221*
X1243Y2220*
X1242Y2219*
X1242Y2219*
X1241Y2218*
X1240Y2218*
X1239Y2218*
X1238*
X1237Y2218*
X1236Y2219*
X1235Y2219*
X1235Y2220*
X1234Y2221*
X1234Y2222*
X1234Y2223*
Y2224*
X1234Y2224*
X1235Y2225*
X1235Y2226*
X1236Y2227*
X1237Y2227*
X1238Y2227*
X1239Y2228*
X1240*
X1241Y2227*
X1241Y2227*
X1242Y2226*
X1243Y2225*
X1243Y2225*
X1244Y2224*
X1244Y2223*
X1244Y2223*
X1271Y2191D02*
X1242Y2219D01*
X1200Y2177D01*
X1228Y2148D01*
X1256Y2120D02*
X1285Y2092D01*
X1327Y2134D01*
X1299Y2163D01*
X970Y1590D02*
X970Y1589D01*
X969Y1588*
X969Y1587*
X968Y1587*
X968Y1586*
X967Y1585*
X966Y1585*
X965Y1585*
X964*
X963Y1585*
X962Y1586*
X961Y1587*
X961Y1587*
X960Y1588*
X960Y1589*
X960Y1590*
Y1591*
X960Y1592*
X961Y1593*
X961Y1593*
X962Y1594*
X963Y1595*
X964Y1595*
X965Y1595*
X966*
X967Y1595*
X967Y1594*
X968Y1594*
X969Y1593*
X969Y1592*
X970Y1591*
X970Y1590*
X970Y1590*
X933Y1622D02*
X961Y1594D01*
X1004Y1636D01*
X976Y1664D01*
X947Y1693D02*
X919Y1721D01*
X877Y1678D01*
X905Y1650D01*
X905Y1522D02*
X905Y1521D01*
X904Y1520*
X904Y1519*
X903Y1518*
X902Y1518*
X902Y1517*
X901Y1517*
X900Y1517*
X899*
X898Y1517*
X897Y1518*
X896Y1518*
X896Y1519*
X895Y1520*
X895Y1521*
X895Y1522*
Y1523*
X895Y1523*
X895Y1524*
X896Y1525*
X897Y1526*
X898Y1526*
X899Y1526*
X900Y1527*
X900*
X901Y1526*
X902Y1526*
X903Y1525*
X904Y1524*
X904Y1524*
X904Y1523*
X905Y1522*
X905Y1522*
X868Y1553D02*
X896Y1525D01*
X939Y1568D01*
X910Y1596D01*
X882Y1624D02*
X854Y1652D01*
X811Y1610D01*
X840Y1582D01*
X822Y2108D02*
X824D01*
X827Y2110*
X829Y2112*
X830Y2115*
Y2118*
X830Y2121*
X827Y2125*
X824Y2128*
X820Y2130*
X818Y2131*
X814*
X811Y2129*
X809Y2128*
X808Y2124*
Y2123*
X807Y2090D02*
X817Y2100D01*
X812Y2095D02*
X794Y2112D01*
X798Y2112*
X802*
X804Y2112*
X941Y2059D02*
X951Y2069D01*
X946Y2064D02*
X929Y2082D01*
X933Y2081*
X936*
X939Y2082*
X913Y2066D02*
X911Y2064D01*
X910Y2061*
Y2060*
X911Y2057*
X914Y2053*
X918Y2049*
X922Y2046*
X924Y2045*
X926*
X929Y2046*
X930Y2048*
X931Y2051*
Y2052*
X930Y2055*
X928Y2059*
X924Y2063*
X919Y2066*
X917Y2067*
X915*
X913Y2066*
X896Y2049D02*
X894Y2047D01*
X893Y2045*
Y2043*
X894Y2040*
X897Y2036*
X901Y2032*
X905Y2029*
X908Y2029*
X909*
X912Y2030*
X914Y2031*
X914Y2034*
Y2035*
X914Y2038*
X911Y2042*
X907Y2046*
X903Y2049*
X900Y2050*
X898*
X896Y2049*
X875Y2016D02*
X887Y2004D01*
X877Y2014D02*
X875Y2014D01*
X872Y2014*
X870Y2011*
X869Y2009*
X870Y2006*
X879Y1997*
X856Y1992D02*
X861Y1998D01*
X871Y1988D02*
X853Y2006D01*
X845Y1998*
X1302Y1722D02*
X1304D01*
X1307Y1724*
X1309Y1726*
X1311Y1729*
Y1733*
X1310Y1735*
X1307Y1739*
X1305Y1742*
X1301Y1744*
X1298Y1745*
X1295*
X1291Y1743*
X1290Y1742*
X1288Y1738*
Y1737*
X1281Y1730D02*
X1279D01*
X1277Y1729*
X1273Y1725*
X1272Y1722*
Y1721*
X1273Y1718*
X1275Y1717*
X1278Y1715*
X1298*
X1287Y1704*
X1414Y1673D02*
X1424Y1683D01*
X1419Y1678D02*
X1401Y1696D01*
X1405Y1695*
X1409*
X1411Y1696*
X1385Y1680D02*
X1384Y1678D01*
X1383Y1676*
Y1674*
X1384Y1671*
X1386Y1667*
X1390Y1663*
X1394Y1660*
X1397Y1660*
X1399*
X1401Y1660*
X1403Y1662*
X1404Y1665*
Y1666*
X1403Y1669*
X1400Y1673*
X1396Y1677*
X1392Y1680*
X1389Y1681*
X1388*
X1385Y1680*
X1368Y1663D02*
X1367Y1661D01*
X1366Y1659*
Y1657*
X1367Y1654*
X1369Y1650*
X1373Y1646*
X1378Y1644*
X1380Y1643*
X1382*
X1384Y1644*
X1386Y1645*
X1387Y1648*
Y1650*
X1386Y1652*
X1384Y1656*
X1379Y1660*
X1375Y1663*
X1373Y1664*
X1371*
X1368Y1663*
X1347Y1630D02*
X1359Y1618D01*
X1349Y1628D02*
X1347Y1629D01*
X1345Y1628*
X1342Y1625*
X1341Y1623*
X1342Y1620*
X1352Y1611*
X1328Y1606D02*
X1334Y1612D01*
X1343Y1602D02*
X1325Y1620D01*
X1317Y1612*
X1299Y2189D02*
Y2187D01*
X1301Y2184*
X1303Y2182*
X1306Y2181*
X1309*
X1312Y2181*
X1316Y2184*
X1319Y2186*
X1321Y2191*
X1322Y2193*
Y2197*
X1320Y2200*
X1319Y2202*
X1315Y2203*
X1314*
X1309Y2211D02*
X1298Y2222D01*
X1298Y2209*
X1295Y2212*
X1292Y2213*
X1291*
X1288Y2212*
X1284Y2207*
X1283Y2205*
Y2203*
X1284Y2201*
X1289Y2196*
X1292Y2195*
X1293*
X1250Y2077D02*
X1260Y2067D01*
X1255Y2072D02*
X1273Y2090D01*
X1272Y2086*
Y2082*
X1273Y2080*
X1257Y2106D02*
X1255Y2108D01*
X1252Y2109*
X1251*
X1248Y2108*
X1244Y2105*
X1240Y2101*
X1237Y2097*
X1236Y2094*
Y2093*
X1237Y2090*
X1239Y2088*
X1241Y2088*
X1243*
X1246Y2088*
X1250Y2091*
X1254Y2095*
X1257Y2099*
X1257Y2102*
Y2104*
X1257Y2106*
X1240Y2123D02*
X1238Y2125D01*
X1236Y2125*
X1234*
X1231Y2125*
X1227Y2122*
X1223Y2118*
X1220Y2114*
X1220Y2111*
Y2109*
X1220Y2107*
X1222Y2105*
X1225Y2104*
X1226*
X1229Y2105*
X1233Y2108*
X1237Y2112*
X1240Y2116*
X1241Y2119*
Y2120*
X1240Y2123*
X1207Y2144D02*
X1195Y2132D01*
X1205Y2142D02*
X1205Y2144D01*
X1204Y2146*
X1202Y2149*
X1199Y2150*
X1197Y2149*
X1188Y2140*
X1183Y2163D02*
X1188Y2157D01*
X1179Y2148D02*
X1197Y2166D01*
X1188Y2174*
X969Y1685D02*
Y1683D01*
X970Y1680*
X972Y1678*
X975Y1677*
X979*
X981Y1677*
X985Y1680*
X988Y1683*
X990Y1687*
X991Y1689*
Y1693*
X990Y1696*
X988Y1698*
X985Y1699*
X983*
X963Y1710D02*
X952Y1699D01*
X974Y1713D02*
X966Y1696D01*
X955Y1707*
X936Y1604D02*
X924Y1592D01*
X947Y1606D02*
X939Y1589D01*
X928Y1600*
X917Y1603D02*
X915Y1603D01*
Y1601*
X917*
Y1603*
X915Y1601*
X926Y1626D02*
X914Y1637D01*
X904Y1612*
X881Y1659D02*
X869Y1647D01*
X888Y1652D02*
X879Y1642D01*
X877Y1641*
X874Y1642*
X872Y1645*
X871Y1647*
Y1649*
X864Y1671D02*
X870Y1665D01*
X861Y1656D02*
X878Y1673D01*
X870Y1682*
X803Y1654D02*
Y1652D01*
X805Y1649*
X806Y1647*
X810Y1645*
X813*
X816Y1646*
X820Y1649*
X822Y1651*
X825Y1655*
X826Y1658*
Y1661*
X824Y1664*
X822Y1666*
X819Y1668*
X817*
X803Y1686D02*
X812Y1677D01*
X804Y1668*
Y1670*
X803Y1672*
X799Y1676*
X796Y1677*
X795*
X792Y1676*
X788Y1672*
X787Y1670*
Y1668*
X788Y1665*
X792Y1661*
X795Y1660*
X796*
X864Y1503D02*
X874Y1493D01*
X869Y1498D02*
X887Y1515D01*
X886Y1511*
Y1508*
X887Y1505*
X871Y1531D02*
X869Y1533D01*
X867Y1534*
X865*
X862Y1533*
X858Y1530*
X854Y1526*
X851Y1522*
X851Y1520*
Y1518*
X851Y1515*
X853Y1514*
X856Y1513*
X857*
X860Y1514*
X864Y1516*
X868Y1520*
X871Y1525*
X872Y1527*
Y1529*
X871Y1531*
X854Y1548D02*
X852Y1550D01*
X850Y1551*
X848*
X845Y1550*
X841Y1547*
X837Y1543*
X835Y1539*
X834Y1536*
Y1535*
X835Y1532*
X836Y1530*
X839Y1530*
X841*
X843Y1530*
X847Y1533*
X851Y1537*
X854Y1541*
X855Y1544*
Y1546*
X854Y1548*
X821Y1569D02*
X809Y1557D01*
X819Y1567D02*
X820Y1569D01*
X819Y1572*
X816Y1574*
X814Y1575*
X811Y1574*
X802Y1565*
X797Y1588D02*
X803Y1583D01*
X793Y1573D02*
X811Y1591D01*
X803Y1599*
X889Y1473D02*
X890Y1472D01*
X893Y1471*
X896*
X899Y1472*
X902Y1474*
X903Y1477*
X904Y1481*
Y1485*
X903Y1490*
X902Y1492*
X899Y1495*
X896Y1496*
X893*
X890Y1495*
X889Y1493*
X867Y1496D02*
X872D01*
X874Y1495*
X876Y1493*
X878Y1490*
X879Y1485*
Y1475*
X878Y1473*
X877Y1472*
X874Y1471*
X870*
X867Y1472*
X866Y1473*
X865Y1475*
Y1481*
X866Y1484*
X867Y1485*
X870Y1486*
X874*
X877Y1485*
X878Y1484*
X879Y1481*
X867Y1385D02*
Y1360D01*
Y1384D02*
X865Y1385D01*
X860*
X858Y1384*
X856Y1383*
X855Y1380*
Y1373*
X856Y1371*
X858Y1370*
X860Y1368*
X865*
X867Y1370*
X836Y1381D02*
X845D01*
X1345Y1473D02*
X1347Y1472D01*
X1350Y1471*
X1352*
X1356Y1472*
X1358Y1474*
X1360Y1477*
X1361Y1481*
Y1485*
X1360Y1490*
X1358Y1492*
X1356Y1495*
X1352Y1496*
X1350*
X1347Y1495*
X1345Y1493*
X1337Y1496D02*
X1320D01*
X1331Y1471*
X1392Y1383D02*
X1390Y1384D01*
X1388Y1386*
X1382*
X1380Y1384*
X1379Y1383*
X1377Y1381*
Y1378*
X1379Y1375*
X1393Y1361*
X1377*
X1362Y1386D02*
X1360D01*
X1357Y1384*
X1356Y1383*
X1355Y1381*
X1354Y1376*
Y1370*
X1355Y1365*
X1356Y1363*
X1357Y1362*
X1360Y1361*
X1362*
X1364Y1362*
X1366Y1363*
X1367Y1365*
X1368Y1370*
Y1376*
X1367Y1381*
X1366Y1383*
X1364Y1384*
X1362Y1386*
X1324Y1377D02*
Y1352D01*
Y1376D02*
X1322Y1377D01*
X1317*
X1314Y1376*
X1313Y1375*
X1312Y1372*
Y1365*
X1313Y1363*
X1314Y1362*
X1317Y1361*
X1322*
X1324Y1362*
X1293Y1374D02*
X1301D01*
Y1361D02*
Y1386D01*
X1289*
X1357Y1288D02*
X1358Y1289D01*
X1359Y1293*
Y1295*
X1358Y1299*
X1355Y1301*
X1353Y1302*
X1348Y1304*
X1345*
X1340Y1302*
X1338Y1301*
X1335Y1299*
X1334Y1295*
Y1293*
X1335Y1289*
X1336Y1288*
X1345Y1274D02*
X1344Y1276D01*
X1342Y1277*
X1340Y1279*
X1339*
X1336Y1277*
X1335Y1276*
X1334Y1274*
Y1269*
X1335Y1267*
X1336Y1265*
X1339Y1264*
X1340*
X1342Y1265*
X1344Y1267*
X1345Y1269*
Y1274*
X1346Y1276*
X1347Y1277*
X1350Y1279*
X1354*
X1357Y1277*
X1358Y1276*
X1359Y1274*
Y1269*
X1358Y1267*
X1357Y1265*
X1354Y1264*
X1350*
X1347Y1265*
X1346Y1267*
X1345Y1269*
X1226Y1232D02*
X1234D01*
X1357Y1194D02*
X1358Y1195D01*
X1359Y1198*
Y1201*
X1358Y1204*
X1355Y1207*
X1353Y1208*
X1348Y1209*
X1345*
X1340Y1208*
X1338Y1207*
X1335Y1204*
X1334Y1201*
Y1198*
X1335Y1195*
X1336Y1194*
X1359Y1182D02*
Y1177D01*
X1358Y1175*
X1357Y1173*
X1353Y1171*
X1348Y1170*
X1339*
X1336Y1171*
X1335Y1172*
X1334Y1175*
Y1179*
X1335Y1182*
X1336Y1183*
X1339Y1184*
X1345*
X1347Y1183*
X1348Y1182*
X1350Y1179*
Y1175*
X1348Y1172*
X1347Y1171*
X1345Y1170*
X1310Y1141D02*
X1293D01*
X1304Y1116*
X1265Y1133D02*
Y1108D01*
Y1132D02*
X1263Y1133D01*
X1258*
X1255Y1132*
X1254Y1131*
X1253Y1128*
Y1121*
X1254Y1119*
X1255Y1118*
X1258Y1116*
X1263*
X1265Y1118*
X1234Y1130D02*
X1242D01*
Y1116D02*
Y1141D01*
X1230*
X1178Y1556D02*
X1166Y1564D01*
X1258Y1583D02*
X1257Y1581D01*
X1255Y1579*
Y1573*
X1257Y1571*
X1258Y1570*
X1260Y1568*
X1263*
X1266Y1570*
X1280Y1584*
Y1568*
X1258Y1559D02*
X1257Y1558D01*
X1255Y1555*
Y1549*
X1257Y1547*
X1258Y1546*
X1260Y1545*
X1263*
X1266Y1546*
X1280Y1560*
Y1545*
X1255Y1529D02*
Y1527D01*
X1257Y1524*
X1258Y1523*
X1260Y1522*
X1265Y1521*
X1271*
X1276Y1522*
X1278Y1523*
X1279Y1524*
X1280Y1527*
Y1529*
X1279Y1532*
X1278Y1533*
X1276Y1534*
X1271Y1535*
X1265*
X1260Y1534*
X1258Y1533*
X1257Y1532*
X1255Y1529*
X922Y1383D02*
X936Y1368D01*
X921D01*
X897Y1384D02*
Y1378D01*
X898Y1373D01*
X899Y1371D01*
X900Y1370D01*
X903Y1368D01*
X905D01*
X908Y1370D01*
X909Y1371D01*
X910Y1373D01*
X911Y1378D01*
Y1384D01*
X1257Y1234D02*
X1255Y1235D01*
X1250D01*
X1247Y1234D01*
X1246Y1233D01*
X1245Y1231D01*
X1153Y1539D02*
X1157Y1542D01*
X1159Y1544D01*
X1160Y1546D01*
X1153Y1570D02*
Y1561D01*
X1154Y1558D01*
X1155Y1557D01*
X1158Y1556D01*
X1161D01*
X1164Y1557D01*
X1165Y1558D01*
X1166Y1561D01*
Y1570D01*
X845Y1368D02*
Y1386D01*
X897Y1384D02*
X898Y1386D01*
X911Y1384D02*
X910Y1386D01*
X1257Y1235D02*
Y1226D01*
X1245Y1231D02*
Y1226D01*
X1153Y1539D02*
X1169D01*
X1153Y1570D02*
X1169D01*
M02*