%FSLAX23Y23*%
%MOIN*%
%SFA1B1*%

%IPPOS*%
%ADD11C,0.015000*%
%ADD24R,0.075000X0.075000*%
%ADD25C,0.075000*%
%ADD26R,0.080000X0.080000*%
%ADD27C,0.080000*%
%ADD28C,0.076000*%
%ADD29C,0.059400*%
%ADD30R,0.055000X0.075000*%
%ADD31R,0.075000X0.055000*%
%LNarmplatform-1*%
%LPD*%
G54D11*
X639Y380D02*
Y2430D01*
X1589Y380D02*
X639D01*
X1589Y2430D02*
Y380D01*
X639Y2430D02*
X1589D01*
G54D24*
X1514Y2355D03*
G54D25*
X1514Y2255D03*
Y2155D03*
Y2055D03*
Y1955D03*
Y1855D03*
Y1755D03*
Y1655D03*
Y1555D03*
Y1455D03*
Y1355D03*
Y1255D03*
Y1155D03*
Y1055D03*
Y955D03*
Y855D03*
Y755D03*
Y655D03*
Y555D03*
Y455D03*
G54D24*
X714Y2355D03*
G54D25*
X714Y2255D03*
Y2155D03*
Y2055D03*
Y1955D03*
Y1855D03*
Y1755D03*
Y1655D03*
Y1555D03*
Y1455D03*
Y1355D03*
Y1255D03*
Y1155D03*
Y1055D03*
Y955D03*
Y855D03*
Y755D03*
Y655D03*
Y555D03*
Y455D03*
G54D26*
X964Y980D03*
G54D27*
X1064Y980D03*
X1164D03*
X1264D03*
G54D28*
X1014Y1430D03*
X1214D03*
G54D29*
X1158Y1241D03*
Y1170D03*
G36*
X837Y1996D02*
X784Y2049D01*
X822Y2088*
X876Y2035*
X837Y1996*
G37*
G36*
X890Y2049D02*
X837Y2102D01*
X875Y2141*
X929Y2088*
X890Y2049*
G37*
G36*
X1351Y1759D02*
X1404Y1706D01*
X1365Y1667*
X1312Y1720*
X1351Y1759*
G37*
G36*
X1298Y1706D02*
X1351Y1653D01*
X1312Y1614*
X1259Y1667*
X1298Y1706*
G37*
G36*
X1191Y2175D02*
X1244Y2228D01*
X1283Y2189*
X1230Y2136*
X1191Y2175*
G37*
G36*
X1244Y2122D02*
X1297Y2175D01*
X1336Y2136*
X1283Y2083*
X1244Y2122*
G37*
G36*
X1013Y1638D02*
X960Y1585D01*
X921Y1624*
X974Y1677*
X1013Y1638*
G37*
G36*
X960Y1691D02*
X907Y1638D01*
X868Y1677*
X921Y1730*
X960Y1691*
G37*
G36*
X947Y1569D02*
X894Y1516D01*
X855Y1555*
X909Y1608*
X947Y1569*
G37*
G36*
X894Y1622D02*
X841Y1569D01*
X802Y1608*
X856Y1661*
X894Y1622*
G37*
G54D30*
X851Y1430D03*
X926D03*
X1376D03*
X1301D03*
X1303Y1281D03*
X1228D03*
X1303Y1181D03*
X1228D03*
G54D31*
X1214Y1518D03*
Y1593D03*
M02*