%FSLAX23Y23*%
%MOIN*%
%SFA1B1*%

%IPPOS*%
%ADD10C,0.006000*%
%ADD11C,0.015000*%
%ADD21C,0.008000*%
%ADD22C,0.010000*%
%ADD23C,0.005000*%
%ADD38C,0.012000*%
%ADD39C,0.012500*%
%LNarmplatform-1*%
%LPD*%
G54D38*
X825Y312D02*
X837D01*
X843Y308*
X848Y301*
X851Y285*
Y259*
X848Y243*
X843Y236*
X837Y232*
X825*
X820Y236*
X814Y243*
X811Y259*
Y285*
X814Y301*
X820Y308*
X825Y312*
X877Y232D02*
Y285D01*
Y270D02*
X880Y278D01*
X883Y281*
X888Y285*
X894*
X940Y232D02*
Y312D01*
Y236D02*
X934Y232D01*
X923*
X917Y236*
X914Y240*
X911Y247*
Y270*
X914Y278*
X917Y281*
X923Y285*
X934*
X940Y281*
X991Y236D02*
X985Y232D01*
X974*
X968Y236*
X965Y243*
Y274*
X968Y281*
X974Y285*
X985*
X991Y281*
X994Y274*
Y266*
X965Y259*
X1020Y232D02*
Y285D01*
Y270D02*
X1022Y278D01*
X1025Y281*
X1031Y285*
X1037*
X1100D02*
X1142D01*
X1117Y320D02*
X1100Y217D01*
X1137Y251D02*
X1094D01*
X1120Y217D02*
X1137Y320D01*
X1188Y285D02*
Y232D01*
X1174Y316D02*
X1160Y259D01*
X1197*
X1248Y312D02*
X1220D01*
X1217Y274*
X1220Y278*
X1225Y281*
X1240*
X1245Y278*
X1248Y274*
X1251Y266*
Y247*
X1248Y240*
X1245Y236*
X1240Y232*
X1225*
X1220Y236*
X1217Y240*
X1288Y312D02*
X1294D01*
X1299Y308*
X1302Y304*
X1305Y297*
X1308Y281*
Y262*
X1305Y247*
X1302Y240*
X1299Y236*
X1294Y232*
X1288*
X1282Y236*
X1279Y240*
X1277Y247*
X1274Y262*
Y281*
X1277Y297*
X1279Y304*
X1282Y308*
X1288Y312*
X1328D02*
X1365D01*
X1345Y281*
X1354*
X1359Y278*
X1362Y274*
X1365Y266*
Y247*
X1362Y240*
X1359Y236*
X1354Y232*
X1337*
X1331Y236*
X1328Y240*
X1399Y278D02*
X1394Y281D01*
X1391Y285*
X1388Y293*
Y297*
X1391Y304*
X1394Y308*
X1399Y312*
X1411*
X1417Y308*
X1419Y304*
X1422Y297*
Y293*
X1419Y285*
X1417Y281*
X1411Y278*
X1399*
X1394Y274*
X1391Y270*
X1388Y262*
Y247*
X1391Y240*
X1394Y236*
X1399Y232*
X1411*
X1417Y236*
X1419Y240*
X1422Y247*
Y262*
X1419Y270*
X1417Y274*
X1411Y278*
G54D11*
X639Y380D02*
Y2430D01*
X1589Y380D02*
X639D01*
X1589Y2430D02*
Y380D01*
X639Y2430D02*
X1589D01*
X1464Y405D02*
Y2405D01*
X1564D02*
Y405D01*
G54D38*
X1464Y2405D02*
X1564D01*
Y405D02*
X1464D01*
X1564Y2305D02*
X1464D01*
G54D11*
X664Y405D02*
Y2405D01*
X764D02*
Y405D01*
G54D38*
X664Y2405D02*
X764D01*
Y405D02*
X664D01*
X764Y2305D02*
X664D01*
G54D22*
X1314Y930D02*
X914D01*
X1314Y1030D02*
X914D01*
Y930D01*
X1314D02*
Y1030D01*
G54D39*
X989Y1330D02*
X1239D01*
X989Y1530D02*
X1239D01*
X1339Y1430D02*
X1338Y1439D01*
X1337Y1448*
X1335Y1456*
X1332Y1465*
X1329Y1473*
X1325Y1480*
X1320Y1488*
X1315Y1495*
X1309Y1501*
X1303Y1507*
X1296Y1512*
X1289Y1517*
X1281Y1521*
X1273Y1524*
X1264Y1527*
X1256Y1529*
X1247Y1530*
X1239Y1530*
Y1330D02*
X1247Y1331D01*
X1256Y1332*
X1264Y1334*
X1273Y1337*
X1281Y1340*
X1289Y1344*
X1296Y1349*
X1303Y1354*
X1309Y1360*
X1315Y1366*
X1320Y1373*
X1325Y1381*
X1329Y1388*
X1332Y1396*
X1335Y1405*
X1337Y1413*
X1338Y1422*
X1339Y1430*
X989Y1530D02*
X980Y1530D01*
X971Y1529*
X963Y1527*
X954Y1524*
X946Y1521*
X939Y1517*
X931Y1512*
X924Y1507*
X918Y1501*
X912Y1495*
X907Y1488*
X902Y1480*
X898Y1473*
X895Y1465*
X892Y1456*
X890Y1448*
X889Y1439*
X889Y1430*
X889Y1422D01*
X890Y1413*
X892Y1405*
X895Y1396*
X898Y1388*
X902Y1381*
X907Y1373*
X912Y1366*
X918Y1360*
X924Y1354*
X931Y1349*
X939Y1344*
X946Y1340*
X954Y1337*
X963Y1334*
X971Y1332*
X980Y1331*
X989Y1330*
G54D11*
X898Y1249D02*
Y1162D01*
X919Y1905D02*
X1114Y1711D01*
X1114Y2100D02*
X1308Y1905D01*
X919Y1905D02*
X1114Y2100D01*
Y1711D02*
X1308Y1905D01*
G54D21*
X1128Y1773D02*
X1128Y1770D01*
X1127Y1767*
X1126Y1765*
X1124Y1763*
X1122Y1761*
X1119Y1759*
X1116Y1758*
X1114Y1758*
X1111Y1758*
X1108Y1759*
X1105Y1761*
X1103Y1762*
X1101Y1765*
X1100Y1767*
X1099Y1770*
X1099Y1773*
X1099Y1776*
X1100Y1778*
X1101Y1781*
X1103Y1783*
X1105Y1785*
X1108Y1787*
X1110Y1787*
X1113Y1788*
X1116Y1788*
X1119Y1787*
X1121Y1785*
X1124Y1784*
X1126Y1781*
X1127Y1779*
X1128Y1776*
X1128Y1773*
X1128Y1773*
G54D11*
X963Y2394D02*
X864D01*
Y2217D02*
X963D01*
G54D21*
X829Y1083D02*
X853D01*
X840Y1068*
X846*
X850Y1066*
X851Y1064*
X853Y1060*
Y1050*
X851Y1047*
X850Y1045*
X846Y1043*
X834*
X830Y1045*
X829Y1047*
X870D02*
X872Y1045D01*
X870Y1043*
X869Y1045*
X870Y1047*
Y1043*
X886Y1083D02*
X910D01*
X897Y1068*
X903*
X907Y1066*
X909Y1064*
X910Y1060*
Y1050*
X909Y1047*
X907Y1045*
X903Y1043*
X891*
X888Y1045*
X886Y1047*
X922Y1083D02*
X935Y1043D01*
X949Y1083*
X990Y1085D02*
X956Y1033D01*
X1027Y1047D02*
X1025Y1045D01*
X1019Y1043*
X1015*
X1009Y1045*
X1006Y1048*
X1004Y1052*
X1002Y1060*
Y1066*
X1004Y1073*
X1006Y1077*
X1009Y1081*
X1015Y1083*
X1019*
X1025Y1081*
X1027Y1079*
X1063Y1043D02*
X1044D01*
Y1083*
X1076Y1043D02*
Y1083D01*
X1099Y1043D02*
X1082Y1066D01*
X1099Y1083D02*
X1076Y1060D01*
X1145Y1085D02*
X1110Y1033D01*
X1179Y1081D02*
X1175Y1083D01*
X1170*
X1164Y1081*
X1160Y1077*
X1158Y1073*
X1156Y1066*
Y1060*
X1158Y1052*
X1160Y1048*
X1164Y1045*
X1170Y1043*
X1173*
X1179Y1045*
X1181Y1047*
Y1060*
X1173*
X1198Y1043D02*
Y1083D01*
X1221Y1043*
Y1083*
X1240Y1043D02*
Y1083D01*
X1249*
X1255Y1081*
X1259Y1077*
X1261Y1073*
X1263Y1066*
Y1060*
X1261Y1052*
X1259Y1048*
X1255Y1045*
X1249Y1043*
X1240*
X1309Y1085D02*
X1274Y1033D01*
X1322Y1043D02*
Y1083D01*
X1331*
X1337Y1081*
X1341Y1077*
X1343Y1073*
X1345Y1066*
Y1060*
X1343Y1052*
X1341Y1048*
X1337Y1045*
X1331Y1043*
X1322*
X1362D02*
Y1083D01*
X1388D02*
X1396D01*
X1400Y1081*
X1404Y1077*
X1406Y1069*
Y1056*
X1404Y1048*
X1400Y1045*
X1396Y1043*
X1388*
X1385Y1045*
X1381Y1048*
X1379Y1056*
Y1069*
X1381Y1077*
X1385Y1081*
X1388Y1083*
G54D38*
X1065Y1491D02*
X1105Y1431D01*
Y1491D02*
X1065Y1431D01*
X1159D02*
X1125D01*
X1142D02*
Y1491D01*
X1136Y1483*
X1131Y1477*
X1125Y1474*
X899Y1372D02*
X894Y1375D01*
X891Y1378*
X888Y1383*
Y1386*
X891Y1392*
X894Y1395*
X899Y1398*
X911*
X916Y1395*
X919Y1392*
X922Y1386*
Y1383*
X919Y1378*
X916Y1375*
X911Y1372*
X899*
X894Y1369*
X891Y1366*
X888Y1361*
Y1349*
X891Y1343*
X894Y1341*
X899Y1338*
X911*
X916Y1341*
X919Y1343*
X922Y1349*
Y1361*
X919Y1366*
X916Y1369*
X911Y1372*
X948Y1338D02*
Y1398D01*
X968Y1355*
X988Y1398*
Y1338*
X1016Y1369D02*
X1051D01*
Y1338D02*
Y1398D01*
X1074Y1378D02*
X1105D01*
X1074Y1338*
X1105*
X1131Y1341D02*
Y1338D01*
X1128Y1332*
X1125Y1329*
X1259Y1378D02*
Y1318D01*
Y1375D02*
X1265Y1378D01*
X1276*
X1282Y1375*
X1285Y1372*
X1288Y1366*
Y1349*
X1285Y1343*
X1282Y1341*
X1276Y1338*
X1265*
X1259Y1341*
X1334Y1369D02*
X1314D01*
Y1338D02*
Y1398D01*
X1342*
G54D21*
X836Y1229D02*
X861D01*
X848Y1214*
X853*
X857Y1212*
X859Y1210*
X861Y1206*
Y1197*
X859Y1193*
X857Y1191*
X853Y1189*
X842*
X838Y1191*
X836Y1193*
X876Y1225D02*
X878Y1227D01*
X882Y1229*
X891*
X895Y1227*
X897Y1225*
X899Y1222*
Y1218*
X897Y1212*
X874Y1189*
X899*
X916Y1193D02*
X918Y1191D01*
X916Y1189*
X914Y1191*
X916Y1193*
Y1189*
X931Y1229D02*
X958D01*
X941Y1189*
X990Y1229D02*
X983D01*
X979Y1227*
X977Y1225*
X973Y1220*
X971Y1212*
Y1197*
X973Y1193*
X975Y1191*
X979Y1189*
X987*
X990Y1191*
X992Y1193*
X994Y1197*
Y1206*
X992Y1210*
X990Y1212*
X987Y1214*
X979*
X975Y1212*
X973Y1210*
X971Y1206*
X1017Y1212D02*
X1013Y1214D01*
X1011Y1216*
X1009Y1220*
Y1222*
X1011Y1225*
X1013Y1227*
X1017Y1229*
X1025*
X1029Y1227*
X1030Y1225*
X1032Y1222*
Y1220*
X1030Y1216*
X1029Y1214*
X1025Y1212*
X1017*
X1013Y1210*
X1011Y1208*
X1009Y1204*
Y1197*
X1011Y1193*
X1013Y1191*
X1017Y1189*
X1025*
X1029Y1191*
X1030Y1193*
X1032Y1197*
Y1204*
X1030Y1208*
X1029Y1210*
X1025Y1212*
X1049Y1189D02*
Y1229D01*
X1053Y1204D02*
X1065Y1189D01*
Y1216D02*
X1049Y1201D01*
X1082Y1189D02*
Y1229D01*
Y1210D02*
X1105D01*
Y1189D02*
Y1229D01*
G54D23*
X1042Y2315D02*
X1043Y2314D01*
X1044Y2310*
Y2308*
X1043Y2304*
X1041Y2302*
X1038Y2301*
X1033Y2300*
X1030*
X1025Y2301*
X1023Y2302*
X1020Y2304*
X1019Y2308*
Y2310*
X1020Y2314*
X1022Y2315*
X1044Y2339D02*
Y2325D01*
Y2332D02*
X1019D01*
X1023Y2329*
X1025Y2327*
X1026Y2325*
X1019Y2354D02*
Y2357D01*
X1020Y2359*
X1022Y2360*
X1024Y2362*
X1029Y2363*
X1035*
X1039Y2362*
X1042Y2360*
X1043Y2359*
X1044Y2357*
Y2354*
X1043Y2352*
X1042Y2351*
X1039Y2350*
X1035Y2349*
X1029*
X1024Y2350*
X1022Y2351*
X1020Y2352*
X1019Y2354*
X1154Y2295D02*
Y2281D01*
Y2288D02*
X1129D01*
X1133Y2285*
X1135Y2283*
X1137Y2281*
X1129Y2310D02*
Y2313D01*
X1131Y2315*
X1132Y2316*
X1134Y2318*
X1139Y2319*
X1145*
X1150Y2318*
X1152Y2316*
X1153Y2315*
X1154Y2313*
Y2310*
X1153Y2308*
X1152Y2307*
X1150Y2306*
X1145Y2305*
X1139*
X1134Y2306*
X1132Y2307*
X1131Y2308*
X1129Y2310*
X1138Y2359D02*
X1154D01*
X1138Y2349D02*
X1151D01*
X1153Y2350*
X1154Y2352*
Y2356*
X1153Y2358*
X1152Y2359*
X1141Y2379D02*
Y2371D01*
X1154D02*
X1129D01*
Y2383*
X1033Y1946D02*
X1058Y1922D01*
X1062Y1920*
X1065*
X1070Y1922*
X1075Y1927*
X1077Y1932*
X1077Y1935*
X1075Y1939*
X1051Y1964*
X1112D02*
X1094Y1946D01*
X1103Y1955D02*
X1072Y1986D01*
X1074Y1978*
Y1973*
X1072Y1968*
G54D10*
X1109Y1789D02*
X1114Y1791D01*
X1120Y1798*
X1122Y1802*
X1122Y1804*
X1120Y1808*
X1118Y1811*
X1114Y1812*
X1111*
X1107Y1811*
X1101Y1807*
X1097Y1806*
X1094Y1806*
X1090Y1807*
X1087Y1810*
X1086Y1814*
Y1816*
X1087Y1820*
X1094Y1827*
X1099Y1830*
X1106Y1839D02*
X1122Y1855D01*
X1142Y1819D02*
X1114Y1847D01*
X1159Y1836D02*
X1131Y1864D01*
X1160Y1854*
X1150Y1883*
X1177Y1855*
X1160Y1893D02*
X1177Y1911D01*
X1179Y1891*
X1183Y1895*
X1187Y1896*
X1189Y1896*
X1193Y1895*
X1200Y1888*
X1201Y1884*
X1201Y1881*
X1200Y1877*
X1192Y1869*
X1188Y1868*
X1185*
X1191Y1918D02*
Y1921D01*
X1192Y1925*
X1199Y1932*
X1203Y1933*
X1205Y1933*
X1209Y1932*
X1212Y1929*
X1215Y1924*
Y1892*
X1232Y1909*
G54D23*
X916Y2355D02*
Y2358D01*
X918Y2360*
X919Y2361*
X921Y2363*
X926Y2364*
X932*
X937Y2363*
X939Y2361*
X940Y2360*
X941Y2358*
Y2355*
X940Y2353*
X939Y2352*
X937Y2351*
X932Y2350*
X926*
X921Y2351*
X919Y2352*
X918Y2353*
X916Y2355*
X919Y2373D02*
X918Y2375D01*
X916Y2377*
Y2383*
X918Y2385*
X919Y2386*
X921Y2388*
X924*
X927Y2386*
X941Y2372*
Y2388*
X1097Y1654D02*
X1095Y1653D01*
X1092Y1652*
X1090*
X1086Y1653*
X1084Y1655*
X1082Y1658*
X1081Y1663*
Y1666*
X1082Y1671*
X1084Y1673*
X1086Y1676*
X1090Y1677*
X1092*
X1095Y1676*
X1097Y1674*
X1120Y1652D02*
X1106D01*
X1113D02*
Y1677D01*
X1111Y1673*
X1109Y1671*
X1106Y1670*
X1144Y1652D02*
X1130D01*
X1137D02*
Y1677D01*
X1135Y1673*
X1132Y1671*
X1130Y1670*
X1088Y1542D02*
X1074D01*
X1081D02*
Y1567D01*
X1079Y1563*
X1076Y1561*
X1074Y1559*
X1129Y1558D02*
Y1542D01*
X1118Y1558D02*
Y1545D01*
X1119Y1543*
X1122Y1542*
X1125*
X1128Y1543*
X1129Y1544*
X1149Y1555D02*
X1141D01*
Y1542D02*
Y1567D01*
X1153*
G54D38*
X1016Y1338D02*
Y1382D01*
X1211Y1338D02*
X1231Y1385D01*
G54D11*
X898Y1249D02*
X1117D01*
X898Y1162D02*
X1117D01*
X963Y2217D02*
Y2248D01*
Y2394D02*
Y2363D01*
M02*