%FSLAX23Y23*%
%MOIN*%
%SFA1B1*%

%IPPOS*%
%ADD11C,0.015000*%
%ADD12R,0.055000X0.055000*%
%ADD13C,0.055000*%
%ADD14R,0.060000X0.060000*%
%ADD15C,0.060000*%
%ADD16C,0.056000*%
%ADD17C,0.039400*%
%ADD18R,0.035000X0.055000*%
%ADD19R,0.055000X0.035000*%
%ADD20C,0.035000*%
%ADD21C,0.008000*%
%ADD32C,0.009800*%
%ADD33R,0.047200X0.020000*%
%ADD34R,0.118100X0.020000*%
%ADD35R,0.118100X0.027600*%
%ADD36R,0.023600X0.070900*%
%ADD37R,0.043300X0.027600*%
%LNarmplatform-1*%
%LPD*%
G54D11*
X639Y380D02*
Y2430D01*
X1589Y380D02*
X639D01*
X1589Y2430D02*
Y380D01*
X639Y2430D02*
X1589D01*
G54D12*
X1514Y2355D03*
G54D13*
X1514Y2255D03*
Y2155D03*
Y2055D03*
Y1955D03*
Y1855D03*
Y1755D03*
Y1655D03*
Y1555D03*
Y1455D03*
Y1355D03*
Y1255D03*
Y1155D03*
Y1055D03*
Y955D03*
Y855D03*
Y755D03*
Y655D03*
Y555D03*
Y455D03*
G54D12*
X714Y2355D03*
G54D13*
X714Y2255D03*
Y2155D03*
Y2055D03*
Y1955D03*
Y1855D03*
Y1755D03*
Y1655D03*
Y1555D03*
Y1455D03*
Y1355D03*
Y1255D03*
Y1155D03*
Y1055D03*
Y955D03*
Y855D03*
Y755D03*
Y655D03*
Y555D03*
Y455D03*
G54D14*
X964Y980D03*
G54D15*
X1064Y980D03*
X1164D03*
X1264D03*
G54D16*
X1014Y1430D03*
X1214D03*
G54D17*
X1158Y1241D03*
Y1170D03*
G54D19*
X1089Y2293D03*
Y2368D03*
G36*
X1179Y1680D02*
X1137Y1722D01*
X1144Y1729*
X1186Y1687*
X1179Y1680*
G37*
G54D32*
X1158Y1736D02*
X1193Y1701D01*
X1172Y1750D02*
X1207Y1715D01*
X1186Y1764D02*
X1221Y1729D01*
X1199Y1778D02*
X1235Y1742D01*
X1213Y1792D02*
X1249Y1756D01*
X1227Y1806D02*
X1263Y1770D01*
X1241Y1820D02*
X1277Y1784D01*
X1255Y1833D02*
X1290Y1798D01*
X1269Y1847D02*
X1304Y1812D01*
X1283Y1861D02*
X1318Y1826D01*
X1297Y1875D02*
X1332Y1840D01*
X1296Y1935D02*
X1331Y1970D01*
X1282Y1948D02*
X1317Y1984D01*
X1268Y1962D02*
X1303Y1998D01*
X1254Y1976D02*
X1289Y2012D01*
X1240Y1990D02*
X1275Y2026D01*
X1226Y2004D02*
X1262Y2040D01*
X1212Y2018D02*
X1248Y2053D01*
X1198Y2032D02*
X1234Y2067D01*
X1184Y2046D02*
X1220Y2081D01*
X1171Y2060D02*
X1206Y2095D01*
X1157Y2074D02*
X1192Y2109D01*
X1143Y2088D02*
X1178Y2123D01*
X1046Y2126D02*
X1082Y2090D01*
X1032Y2112D02*
X1068Y2077D01*
X1018Y2098D02*
X1054Y2063D01*
X1004Y2084D02*
X1040Y2049D01*
X991Y2070D02*
X1026Y2035D01*
X977Y2056D02*
X1012Y2021D01*
X963Y2042D02*
X998Y2007D01*
X949Y2028D02*
X984Y1993D01*
X935Y2015D02*
X970Y1979D01*
X921Y2001D02*
X956Y1965D01*
X907Y1987D02*
X942Y1951D01*
X893Y1973D02*
X929Y1937D01*
X895Y1840D02*
X930Y1875D01*
X909Y1826D02*
X944Y1861D01*
X937Y1798D02*
X972Y1833D01*
X922Y1812D02*
X958Y1847D01*
X951Y1784D02*
X986Y1820D01*
X964Y1770D02*
X1000Y1806D01*
X978Y1756D02*
X1014Y1792D01*
X992Y1742D02*
X1028Y1778D01*
X1006Y1729D02*
X1042Y1764D01*
X1020Y1715D02*
X1056Y1750D01*
X1034Y1701D02*
X1069Y1736D01*
X1048Y1687D02*
X1083Y1722D01*
G54D33*
X833Y2365D03*
G54D34*
X868Y2246D03*
G54D35*
X868Y2305D03*
G54D36*
X982Y2305D03*
G54D37*
X906Y2260D03*
Y2296D03*
G54D18*
X1076Y1605D03*
X1151D03*
G54D20*
X869Y1998D03*
X1317Y1769D03*
X1203Y2147D03*
X1022Y1662D03*
X1074Y2236D03*
X1161Y1659D03*
X1258Y2085D03*
X1182Y1989D03*
X1260Y1634D03*
G54D21*
X964Y1603D02*
X1022Y1662D01*
X1070Y2240D02*
Y2246D01*
X1074Y2236D02*
X1070Y2240D01*
X938Y2246D02*
X1070D01*
X1089Y2265D02*
Y2265D01*
X1070Y2246D02*
X1089Y2265D01*
X1161Y2105D02*
X1160D01*
X1203Y2147D02*
X1161Y2105D01*
X868Y2246D02*
X938D01*
X1089Y2293D02*
Y2265D01*
X964Y980D02*
Y1021D01*
Y1603D01*
X1273Y1813D02*
X1317Y1769D01*
X1273Y1816D02*
Y1813D01*
X911Y1956D02*
X869Y1998D01*
X911Y1955D02*
Y1956D01*
X1065Y1705D02*
X1022Y1662D01*
X1065Y1705D02*
X1065D01*
X1161Y1659D02*
Y1616D01*
X1151Y1605D01*
X1161Y1704D02*
Y1659D01*
X1304Y665D02*
X1514Y455D01*
X1304Y1729D02*
Y665D01*
X1245Y1788D02*
X1304Y1729D01*
X1318Y1798D02*
X1331D01*
X1287Y1830D02*
X1318Y1798D01*
X1331D02*
X1345Y1784D01*
Y1024D01*
X1514Y855D01*
X1301Y1844D02*
X1329Y1815D01*
X1360Y1109D02*
X1514Y955D01*
X1360Y1790D02*
Y1109D01*
X1334Y1815D02*
X1360Y1790D01*
X1329Y1815D02*
X1334D01*
X928Y2078D02*
X980Y2025D01*
X736Y2078D02*
X928D01*
X714Y2055D02*
X736Y2078D01*
X714Y1955D02*
X819Y2061D01*
X917D01*
X967Y2011D01*
X761Y1950D02*
Y1903D01*
X857Y2046D02*
X761Y1950D01*
X903Y2046D02*
X857D01*
X953Y1997D02*
X903Y2046D01*
X761Y1903D02*
X714Y1855D01*
X787Y1956D02*
X858Y2027D01*
X787Y1829D02*
Y1956D01*
X714Y1755D02*
X787Y1829D01*
X858Y2027D02*
X894D01*
X939Y1983D01*
X766Y1711D02*
Y1608D01*
X714Y1555D01*
X913Y1858D02*
X766Y1711D01*
X787Y1529D02*
X714Y1455D01*
X787Y1705D02*
Y1529D01*
X926Y1844D02*
X787Y1705D01*
X1374Y1195D02*
X1514Y1055D01*
X1374Y1798D02*
Y1195D01*
X1315Y1858D02*
X1374Y1798D01*
X1314Y1952D02*
Y1950D01*
X1402Y1862D01*
Y1367D01*
X1514Y1255D01*
X1300Y1966D02*
X1328Y1995D01*
X1417Y1452D02*
X1514Y1355D01*
X1417Y1867D02*
Y1452D01*
X1388Y1896D02*
X1417Y1867D01*
X1388Y1921D02*
Y1896D01*
X1381Y1929D02*
X1388Y1921D01*
X1381Y1942D02*
Y1929D01*
X1328Y1995D02*
X1381Y1942D01*
X1403Y1940D02*
Y1902D01*
X1327Y2016D02*
X1403Y1940D01*
X1322Y2016D02*
X1327D01*
X1286Y1980D02*
X1322Y2016D01*
X1403Y1902D02*
X1431Y1873D01*
Y1538D01*
X1514Y1455D01*
X1445Y1624D02*
X1514Y1555D01*
X1445Y1879D02*
Y1624D01*
X1417Y1908D02*
X1445Y1879D01*
X1417Y1946D02*
Y1908D01*
X1333Y2030D02*
X1417Y1946D01*
X1308Y2030D02*
X1333D01*
X1272Y1994D02*
X1308Y2030D01*
X1460Y1885D02*
Y1709D01*
X1258Y2008D02*
X1300Y2050D01*
X1340D01*
X1432Y1958D01*
Y1913D01*
X1460Y1885D01*
Y1709D02*
X1514Y1655D01*
X1008Y2052D02*
X980Y2081D01*
X839Y2222D02*
X980Y2081D01*
X747Y2222D02*
X839D01*
X714Y2255D02*
X747Y2222D01*
X878Y2155D02*
X714D01*
X994Y2039D02*
X878Y2155D01*
X1554Y832D02*
X1516Y794D01*
X1451Y618D02*
X1514Y555D01*
X1451Y768D02*
Y618D01*
X1478Y794D02*
X1451Y768D01*
X1516Y794D02*
X1478D01*
X1554Y1182D02*
Y832D01*
X1519Y1216D02*
X1554Y1182D01*
X1476Y1216D02*
X1519D01*
X1388Y1820D02*
Y1305D01*
X1215Y1993D02*
X1388Y1820D01*
X1215Y1993D02*
Y1993D01*
X1244Y2022D02*
X1215Y1993D01*
X1388Y1305D02*
X1476Y1216D01*
X1347Y2064D02*
X1450Y1961D01*
Y1915D01*
X1251Y2057D02*
X1269D01*
X1276Y2064D01*
X1474Y1891D02*
Y1837D01*
X1230Y2036D02*
X1251Y2057D01*
X1568Y710D02*
X1514Y655D01*
X1276Y2064D02*
X1347D01*
X1516Y1794D02*
X1549D01*
X1474Y1837D02*
X1516Y1794D01*
X1568Y1776D02*
Y710D01*
X1549Y1794D02*
X1568Y1776D01*
X1450Y1915D02*
X1474Y1891D01*
X1231Y2092D02*
X1238Y2085D01*
X1258D01*
X1202Y2064D02*
X1231Y2092D01*
X1514Y1882D02*
Y1855D01*
X1474Y1922D02*
X1514Y1882D01*
X1474Y1958D02*
Y1922D01*
X1319Y2113D02*
X1474Y1958D01*
X1224Y2113D02*
X1319D01*
X1188Y2078D02*
X1224Y2113D01*
X1294Y2175D02*
X1188D01*
X1064Y2108D02*
X1093Y2080D01*
X1514Y1955D02*
X1294Y2175D01*
X1188D02*
X1093Y2080D01*
X1030Y2114D02*
X1050Y2094D01*
X1030Y2132D02*
Y2114D01*
X1074Y2175D02*
X1030Y2132D01*
X1145Y2175D02*
X1074D01*
X1160Y2190D02*
X1145Y2175D01*
X1379Y2190D02*
X1160D01*
X1514Y2055D02*
X1379Y2190D01*
X1011Y2133D02*
Y2105D01*
X1068Y2190D02*
X1011Y2133D01*
X1514Y2155D02*
X1465Y2204D01*
X1150D02*
X1135Y2190D01*
X1068D01*
X1011Y2105D02*
X1036Y2080D01*
X1465Y2204D02*
X1150D01*
X1022Y2066D02*
X994Y2095D01*
Y2136D02*
Y2095D01*
X1062Y2204D02*
X994Y2136D01*
X1129Y2204D02*
X1062D01*
X1181Y2255D02*
X1129Y2204D01*
X1514Y2255D02*
X1181D01*
X1182Y2015D02*
Y1989D01*
X1216Y2050D02*
X1182Y2015D01*
X812Y1454D02*
Y1701D01*
X714Y1355D02*
X812Y1454D01*
Y1701D02*
X940Y1829D01*
X830Y1692D02*
X954Y1816D01*
X830Y1372D02*
Y1692D01*
X714Y1255D02*
X830Y1372D01*
X714Y1155D02*
X864Y1306D01*
Y1698D01*
X968Y1802D01*
X883Y1688D02*
X982Y1788D01*
X883Y1224D02*
Y1688D01*
X714Y1055D02*
X883Y1224D01*
X996Y1774D02*
X968Y1746D01*
X897Y1139D02*
X714Y955D01*
X897Y1675D02*
Y1139D01*
X968Y1746D02*
X897Y1675D01*
X995Y1718D02*
X911Y1634D01*
X1024Y1746D02*
X995Y1718D01*
X911Y1053D02*
X714Y855D01*
X911Y1634D02*
Y1053D01*
X776Y818D02*
X714Y755D01*
X776Y897D02*
Y818D01*
X937Y1059D02*
X776Y897D01*
X937Y1632D02*
Y1059D01*
X1038Y1732D02*
X937Y1632D01*
X1175Y1718D02*
X1197Y1697D01*
Y1533D01*
X1008Y1344D01*
Y950D01*
X714Y655D01*
X1116Y958D02*
X714Y555D01*
X1116Y1199D02*
Y958D01*
X1158Y1241D02*
X1116Y1199D01*
X1158Y1472D02*
Y1241D01*
X1218Y1531D02*
X1158Y1472D01*
X1218Y1704D02*
Y1531D01*
X1189Y1732D02*
X1218Y1704D01*
X1214Y955D02*
X714Y455D01*
X1173Y1450D02*
X1232Y1509D01*
X1158Y1170D02*
X1200Y1211D01*
X1232Y1509D02*
Y1717D01*
X1200Y1211D02*
Y1288D01*
X1214Y1115D02*
Y955D01*
X1173Y1315D02*
Y1450D01*
X1158Y1170D02*
X1214Y1115D01*
X1232Y1717D02*
X1203Y1746D01*
X1200Y1288D02*
X1173Y1315D01*
X1463Y2368D02*
X1476Y2355D01*
X1099Y1728D02*
X1080Y1747D01*
X1146Y1923D02*
Y2063D01*
X1038Y1816D02*
X1142Y1919D01*
X1230Y1830D01*
X1259Y1802D02*
X1230Y1830D01*
X1076Y1605D02*
Y1643D01*
X1099Y1666D01*
Y1728D01*
X1038Y1789D02*
X1041D01*
X870Y2368D02*
X1089D01*
X1142Y1919D02*
X1146Y1923D01*
X833Y2365D02*
X867D01*
X1174Y2091D02*
X1146Y2063D01*
X1038Y1789D02*
Y1816D01*
X1052Y1719D02*
X1080Y1747D01*
X1010Y1760D02*
X1038Y1789D01*
X925Y1969D02*
X953Y1940D01*
X1514Y2355D02*
X1476D01*
X1089Y2368D02*
X1463D01*
X867Y2365D02*
X870Y2368D01*
X1080Y1750D02*
Y1747D01*
X934Y1920D02*
X953Y1939D01*
Y1940D01*
X1038Y1816D02*
X934Y1920D01*
X714Y1655D02*
Y1699D01*
X934Y1920D01*
X1041Y1789D02*
X1080Y1750D01*
X973Y2349D02*
X975Y2351D01*
X973Y2344D02*
Y2349D01*
X868Y2305D02*
X938D01*
X982D02*
Y2351D01*
X975D02*
X982D01*
X868Y2305D02*
X799D01*
X938D02*
Y2309D01*
X973Y2344D01*
X799Y2308D02*
Y2305D01*
X714Y2355D02*
X751D01*
X799Y2308D01*
X1217Y1760D02*
X1189Y1789D01*
X1014Y1430D02*
X1113Y1530D01*
Y1714D01*
X1188Y1789D01*
X1189D01*
X1231Y1774D02*
X1260Y1745D01*
X1260Y1635D02*
X1260Y1634D01*
X1260Y1745D02*
Y1635D01*
X1260Y1745D02*
X1260Y1745D01*
M02*